<?xml version="1.0" encoding="UTF-8"?>
<svg id="Layer_2" xmlns="http://www.w3.org/2000/svg" version="1.1" viewBox="0 0 316.4 210.6">
  <!-- Generator: Adobe Illustrator 29.2.1, SVG Export Plug-In . SVG Version: 2.1.0 Build 116)  -->
  <defs>
    <style>
      .st0 {
        fill: aqua;
      }
    </style>
  </defs>
  <g id="Layer_1-2">
    <path class="st0" d="M17.9,20.8C44.9-8,85.7-3.3,104,13.2c-1.2,1.3-2.5,2.6-3.7,3.9-13.2,13.2-26.5,26.3-39.7,39.5-6.2,6.2-6.1,11,0,17.1,16,16.3,31.9,32.7,47.9,48.9,7.8,7.9,11.9,7.9,19.7.3,13.2-13,26.3-26,39.5-39,1.3-1.3,2.6-2.5,5.1-4.8,2.9,3.4,5.4,6.7,8.3,9.7,20.1,20.2,40.4,40.2,60.6,60.3,1.2,1.2,2.4,2.4,3.7,3.3,4.1,2.9,9.6,2.4,12.8-1.1,3.2-3.4,3.4-8.9,0-12.7s-7.2-7.4-10.9-11c-24-24-48.1-48.1-72.1-72.1-.8-.8-1.7-1.5-2.8-2.5-17.5,17.8-34.9,35.4-51.9,52.6-13.8-13.7-26.8-26.6-40.1-39.9.8-.9,1.8-2.1,3-3.3,13.4-13.4,26.9-26.8,40.3-40.3,28.6-28.5,68.5-28.4,97.1.2,25.3,25.4,50.8,50.6,76,76,22.2,22.3,26,55.5,9.6,81.8-21.4,34.3-69.4,40.9-99,13.4-10.7-10-20.9-20.6-31.3-31-1.3-1.3-2.1-3-3.4-4.8-3.9,3.7-6.6,6.3-9.4,8.9-25.2,23.4-64,23.6-88.9-.2-18.8-17.9-37.1-36.4-55.3-55-24.9-25.6-25.3-63.6-1.1-90.7h0q0,.1,0,.1Z"/>
  </g>
</svg>