<?xml version="1.0" encoding="UTF-8"?>
<svg id="Layer_2" xmlns="http://www.w3.org/2000/svg" version="1.1" viewBox="0 0 129.8 151.4">
  <!-- Generator: Adobe Illustrator 29.2.1, SVG Export Plug-In . SVG Version: 2.1.0 Build 116)  -->
  <defs>
    <style>
      .st0 {
        fill: aqua;
      }
    </style>
  </defs>
  <g id="Layer_1-2">
    <path class="st0" d="M79.9,85.3c3.7-4.1,7.2-7.9,10.4-11.4,13.6,13.9,26.4,26.9,39.5,40.2-15,15.2-29.2,33.1-53.9,36.6-26.8,3.8-53.4-8.5-67-32.1-13.6-23.6-11.7-54,6.4-74.2C29.2,28.9,44.8,15.1,60.3,0c-.8,21.8,4.8,41.7,18.6,59.4-6,5.8-11.7,11.4-17.3,17-6.4,6.4-7.4,12.2-3.1,16.4,4.6,4.4,10.2,3.5,16.5-2.7,1.5-1.5,3.1-3,4.9-4.8h0Z"/>
  </g>
</svg>