<?xml version="1.0" encoding="UTF-8"?>
<svg id="Layer_1" xmlns="http://www.w3.org/2000/svg" version="1.1" viewBox="0 0 355 54">
  <!-- Generator: Adobe Illustrator 29.2.1, SVG Export Plug-In . SVG Version: 2.1.0 Build 116)  -->
  <defs>
    <style>
      .st0 {
        fill: #fff;
      }

      .st1 {
        fill: none;
        stroke: #fff;
        stroke-width: 2px;
      }
    </style>
  </defs>
  <path class="st1" d="M274,27.3c0,12.9-10.7,23.4-24,23.4h-.2c-13.2,0-23.9-10.6-23.8-23.6,0-12.9,10.9-23.3,24.2-23.2,13.2,0,23.8,10.5,23.8,23.4Z"/>
  <path class="st0" d="M257,21.9v5h6.8l-.9,6.7h-5.9v16.1c-1.4.4-2.8.7-4.3.9-.9,0-1.8.1-2.7.1h-.2v-17.2h-5.9v-6.7h5.9v-5.7c0-4.3,3.5-7.9,8-8.1,1.2,0,2.4,0,3.6,0l2.6.3v6h-4.4c-1.4,0-2.6,1.1-2.6,2.5"/>
  <path class="st1" d="M354,26.8c0,14.3-11.8,25.8-26.4,25.8h-.2c-14.6-.1-26.4-11.8-26.3-26,.1-14.3,12.1-25.7,26.7-25.6,14.5.1,26.3,11.6,26.3,25.8Z"/>
  <path class="st0" d="M341.5,34.8c0,3.2-2.7,5.9-6,5.9h-15.9c-3.3,0-6-2.6-6-5.9v-15.5c0-3.2,2.7-5.8,6-5.9h15.9c3.3,0,6,2.6,6,5.9v15.5ZM335.4,11h-15.9c-4.6,0-8.4,3.7-8.4,8.2v15.5c0,4.5,3.8,8.2,8.4,8.2h15.9c4.6,0,8.4-3.7,8.4-8.2v-15.5c0-4.5-3.8-8.2-8.4-8.2Z"/>
  <path class="st0" d="M327.5,32.7c-3.2,0-5.9-2.6-5.9-5.7s2.6-5.7,5.9-5.7,5.9,2.6,5.9,5.7-2.6,5.7-5.9,5.7ZM327.5,18.9c-4.6,0-8.3,3.6-8.3,8.1s3.7,8.1,8.3,8.1,8.3-3.6,8.3-8.1-3.7-8.1-8.3-8.1Z"/>
  <path class="st0" d="M338.6,18.5c0,1-.8,1.8-1.9,1.8s-1.9-.8-1.9-1.8.8-1.8,1.9-1.8,1.9.8,1.9,1.8Z"/>
  <path class="st1" d="M199.2,27.4c0,13-10.8,23.5-24,23.5h-.2c-13.3,0-24-10.7-23.9-23.7,0-13,11-23.4,24.3-23.3,13.2,0,23.9,10.6,23.9,23.5"/>
  <path class="st0" d="M188.2,27.2v-.2c0,0,0-.1,0-.2,0,0,0-.1,0-.2,0,0,0-.1,0-.2h0c0-.1,0-.2,0-.2,0,0,0-.2,0-.3,0,0,0-.1,0-.2h-13v5.3h7c-2,3.8-6.8,5.2-10.6,3.3s-5.4-6.6-3.4-10.4c2-3.8,6.8-5.2,10.6-3.3.5.3,1,.6,1.4.9l3.7-3.6c-5.4-4.7-13.6-4.2-18.5,1-4.8,5.3-4.3,13.3,1,18,5.4,4.7,13.7,4.2,18.5-1,1.3-1.4,2.3-3.1,2.8-5h0s0-.1,0-.1c0,0,0,0,0,0,0-.1,0-.3,0-.4,0,0,0-.1,0-.2h0c0,0,0-.1,0-.2,0,0,0,0,0,0,0-.1,0-.3,0-.4,0,0,0-.1,0-.2,0,0,0,0,0-.1,0,0,0,0,0,0,0,0,0,0,0-.1,0,0,0,0,0-.1s0,0,0,0c0,0,0-.1,0-.2,0,0,0-.1,0-.2h0c0-.1,0-.2,0-.2h0v-.2h0v-.7"/>
  <path class="st1" d="M48.9,27.3c0,12.9-10.7,23.4-24,23.4S1,40.2,1,27.3,11.7,3.9,25,3.9s24,10.4,24,23.3h0"/>
  <path class="st0" d="M17.8,17.2c0,1.8-1.6,3.3-3.4,3.3-1.9,0-3.4-1.5-3.4-3.4,0-1.8,1.5-3.3,3.4-3.3s3.4,1.5,3.4,3.3h0"/>
  <path class="st0" d="M26.5,25.2v-2.8h-5.5v18.4h5.5v-7.6c0-.7,0-1.3,0-2,0-.5.1-1.1.3-1.6.2-.7.8-1.4,1.5-1.7.5-.3,1.2-.4,1.8-.4.4,0,.8,0,1.2.2.7.3,1.3.9,1.5,1.6.2.7.4,1.4.3,2.1v9.3h5.8v-10.9c0-.5,0-1,0-1.5,0-.7-.3-1.5-.5-2.2-.5-1.3-1.5-2.4-2.7-3-1-.5-2.1-.8-3.2-.8-.5,0-1,0-1.4.1-1.4.2-2.6.9-3.6,1.9-.3.3-.6.6-.8,1h0"/>
  <path class="st0" d="M17.3,22.4h-5.8v18.4h5.8v-18.4Z"/>
  <path class="st1" d="M124.2,27.4c0,13-10.8,23.5-24,23.5h-.2c-13.3,0-24-10.7-23.9-23.7,0-13,11-23.4,24.3-23.3,13.2,0,23.9,10.6,23.9,23.5"/>
  <path class="st0" d="M102.9,31l9.5,10.7h-2.2l-8.2-9.3-6.6,9.3h-7.6l9.9-14.1-9.9-11.3h2.2l8.7,9.8,6.9-9.8h7.6l-10.3,14.6h0ZM99.8,27.5l-1,1.4-8,11.2h3.4l6.5-9,1-1.4,8.4-11.7h-3.4l-6.9,9.6h0Z"/>
</svg>