<svg width="355" height="54" viewBox="0 0 355 54" fill="none" xmlns="http://www.w3.org/2000/svg">
<path d="M274.001 27.3306C274.011 40.2419 263.291 50.725 250.041 50.7348H249.821C236.571 50.6373 225.901 40.0859 226.001 27.1551C226.101 14.2243 236.921 3.82894 250.181 3.92646C263.361 4.02398 274.001 14.4681 274.001 27.3306Z" stroke="white" stroke-width="2"/>
<path d="M257.04 21.8892V26.8528H263.81L262.9 33.562H257.05V49.7109C255.65 50.1302 254.21 50.4227 252.75 50.5885C251.84 50.686 250.93 50.7348 250.02 50.7348H249.84V33.562H243.98V26.8528H249.84V21.1578C249.84 16.8085 253.35 13.2296 257.81 13.0443C259 12.9956 260.19 13.0248 261.37 13.1321L264 13.3857V19.3732H259.65C258.22 19.3732 257.07 20.5044 257.07 21.8892" fill="white"/>
<path d="M353.981 26.8331C353.991 41.0901 342.151 52.6459 327.541 52.6654H327.291C312.661 52.5582 300.891 40.9048 301.001 26.6381C301.111 12.3713 313.061 0.893477 327.691 1.00075C342.241 1.10801 353.981 12.6443 353.981 26.8331Z" stroke="white" stroke-width="2"/>
<path d="M341.451 34.7514C341.451 37.989 338.761 40.6024 335.441 40.6122H319.531C316.221 40.6122 313.531 37.989 313.531 34.7514V19.2364C313.531 16.0086 316.221 13.3951 319.531 13.3853H335.441C338.751 13.3853 341.441 16.0086 341.451 19.2364V34.7514ZM335.441 11.0449H319.531C314.891 11.0449 311.131 14.7116 311.121 19.2364V34.7514C311.121 39.2762 314.881 42.9526 319.531 42.9526H335.441C340.081 42.9526 343.841 39.2762 343.851 34.7514V19.2364C343.851 14.7116 340.081 11.0449 335.441 11.0449Z" fill="white"/>
<path d="M327.491 32.7332C324.241 32.7332 321.601 30.1588 321.601 26.9895C321.601 23.8201 324.241 21.2457 327.491 21.2457C330.741 21.2457 333.381 23.8201 333.381 26.9895C333.381 30.1588 330.741 32.7235 327.491 32.7332ZM327.491 18.9053C322.911 18.9053 319.201 22.5232 319.201 26.9895C319.201 31.4558 322.911 35.0736 327.491 35.0736C332.071 35.0736 335.781 31.4558 335.781 26.9895C335.781 22.5329 332.071 18.915 327.491 18.9053Z" fill="white"/>
<path d="M338.631 18.5443C338.631 19.539 337.801 20.3484 336.781 20.3484C335.761 20.3484 334.931 19.539 334.931 18.5443C334.931 17.5496 335.761 16.7402 336.781 16.7402C337.801 16.7402 338.631 17.5496 338.631 18.5443Z" fill="white"/>
<path d="M199.161 27.4086C199.171 40.3687 188.411 50.8811 175.121 50.8908H174.901C161.601 50.7933 150.901 40.2029 151.001 27.2331C151.101 14.2633 161.961 3.82894 175.261 3.92646C188.491 4.02398 199.171 14.5071 199.171 27.4184" stroke="white" stroke-width="2"/>
<path d="M188.161 27.204C188.161 27.126 188.161 27.0382 188.161 26.9602C188.161 26.8822 188.161 26.8237 188.151 26.7554C188.141 26.6872 188.151 26.6091 188.141 26.5409C188.131 26.4726 188.141 26.4239 188.131 26.3556C188.131 26.3263 188.131 26.2971 188.131 26.2678C188.131 26.2191 188.131 26.1801 188.121 26.1313C188.111 26.0435 188.101 25.9558 188.091 25.8778C188.091 25.8095 188.071 25.7412 188.061 25.6827H175.101V30.9487H182.101C180.091 34.7128 175.331 36.1854 171.471 34.2253C167.611 32.2652 166.101 27.6233 168.111 23.8592C170.121 20.095 174.881 18.6225 178.741 20.5826C179.241 20.8361 179.711 21.1384 180.141 21.4895L183.831 17.8911C178.441 13.2005 170.181 13.6588 165.371 18.9053C160.561 24.1615 161.031 32.2164 166.411 36.907C171.801 41.5976 180.061 41.1392 184.871 35.8928C186.171 34.469 187.131 32.7722 187.681 30.9389V30.9097C187.681 30.9097 187.711 30.8316 187.721 30.7926C187.731 30.7536 187.741 30.7244 187.751 30.6951C187.781 30.5683 187.821 30.4318 187.851 30.3051C187.871 30.2368 187.881 30.1685 187.901 30.1003V30.071C187.921 30.0125 187.931 29.9637 187.941 29.9052C187.941 29.8857 187.941 29.8662 187.951 29.8467C187.981 29.7102 188.001 29.5834 188.021 29.4469C188.031 29.3786 188.041 29.3104 188.051 29.2421C188.051 29.2031 188.061 29.1641 188.071 29.1348C188.081 29.1056 188.071 29.0763 188.081 29.0568C188.091 29.0373 188.081 28.9788 188.091 28.9398C188.101 28.9008 188.091 28.8715 188.101 28.8325C188.111 28.7935 188.101 28.774 188.101 28.7545C188.101 28.6863 188.111 28.618 188.121 28.5497C188.131 28.4815 188.131 28.4132 188.141 28.3547V28.2377C188.141 28.2377 188.151 28.1597 188.161 28.1109V28.0719C188.161 28.0134 188.161 27.9646 188.161 27.9159V27.8281C188.161 27.6916 188.161 27.5551 188.161 27.4185V27.2138" fill="white"/>
<path d="M48.93 27.2909C48.93 40.1925 38.2 50.6561 24.97 50.6561C11.74 50.6561 1 40.1925 1 27.2909C1 14.3894 11.73 3.92578 24.96 3.92578C38.19 3.92578 48.92 14.3699 48.92 27.2714V27.3007" stroke="white" stroke-width="2"/>
<path d="M17.83 17.2081C17.82 19.0512 16.27 20.5334 14.38 20.5237C12.49 20.5139 10.97 19.0024 10.98 17.1593C10.99 15.326 12.52 13.8438 14.4 13.8438C16.29 13.8438 17.82 15.3455 17.82 17.1886V17.2081" fill="white"/>
<path d="M26.5402 25.194V22.3563H20.9902V40.7383H26.5402V33.1124C26.5402 32.4591 26.5202 31.8057 26.5602 31.1426C26.5802 30.616 26.6802 30.0894 26.8602 29.5921C27.1002 28.8509 27.6302 28.2366 28.3202 27.866C28.8702 27.6027 29.4802 27.4759 30.0902 27.4954C30.5102 27.4954 30.9302 27.5637 31.3202 27.71C32.0302 28.0123 32.5802 28.5974 32.8202 29.319C33.0702 30.0114 33.1902 30.733 33.1702 31.4644C33.1702 34.5557 33.1702 37.6372 33.1702 40.7285H38.9402V29.7871C38.9402 29.28 38.9202 28.7729 38.8602 28.2658C38.7802 27.5247 38.6002 26.7933 38.3202 26.1009C37.8202 24.804 36.8502 23.741 35.5902 23.0974C34.5902 22.6098 33.4802 22.3465 32.3602 22.3465C31.8802 22.3368 31.4002 22.366 30.9202 22.4538C29.5502 22.6781 28.3002 23.3314 27.3502 24.3164C27.0502 24.6187 26.7802 24.96 26.5502 25.3208V25.194" fill="white"/>
<path d="M17.33 22.3564H11.54V40.7385H17.33V22.3564Z" fill="white"/>
<path d="M124.17 27.4086C124.18 40.3687 113.42 50.8811 100.13 50.8908H99.91C86.61 50.7933 75.91 40.2029 76.01 27.2331C76.11 14.2633 86.97 3.82894 100.27 3.92646C113.5 4.02398 124.18 14.5071 124.18 27.4184" stroke="white" stroke-width="2"/>
<path d="M102.87 30.9977L112.34 41.7246H110.1L101.88 32.4117L95.32 41.7246H87.75L97.68 27.6334L87.75 16.3799H89.99L98.67 26.2194L105.6 16.3799H113.17L102.88 30.988L102.87 30.9977ZM99.8 27.5066L98.79 28.9109L90.79 40.0766H94.24L100.7 31.066L101.71 29.6617L110.1 17.9499H106.66L99.81 27.5066H99.8Z" fill="white"/>
</svg>
