<?xml version="1.0" encoding="UTF-8"?>
<svg id="Layer_2" data-name="Layer 2" xmlns="http://www.w3.org/2000/svg" viewBox="0 0 50 48.81">
  <defs>
    <style>
      .cls-1 {
        fill: #fff;
      }

      .cls-2 {
        fill: none;
        stroke: #fff;
        stroke-width: 2px;
      }
    </style>
  </defs>
  <g id="Layer_1-2" data-name="Layer 1">
    <path class="cls-2" d="M49,24.4c0,12.91-10.71,23.39-23.96,23.4h-.22c-13.25-.1-23.92-10.65-23.82-23.58C1.1,11.3,11.92.9,25.18,1c13.18.1,23.82,10.54,23.82,23.4Z"/>
    <path class="cls-1" d="M32.04,18.96v4.96h6.77l-.91,6.71h-5.85v16.15c-1.4.42-2.84.71-4.3.88-.91.1-1.82.15-2.73.15h-.18v-17.17h-5.86v-6.71h5.86v-5.69c0-4.35,3.51-7.93,7.97-8.11,1.19-.05,2.38-.02,3.56.09l2.63.25v5.99h-4.35c-1.43,0-2.58,1.13-2.58,2.52"/>
  </g>
</svg>