<?xml version="1.0" encoding="UTF-8"?>
<svg id="OBJECTS" xmlns="http://www.w3.org/2000/svg" viewBox="0 0 137.1 336.17">
  <defs>
    <style>
      .cls-1, .cls-2, .cls-3, .cls-4, .cls-5, .cls-6, .cls-7, .cls-8 {
        stroke: #673936;
        stroke-linecap: round;
        stroke-linejoin: round;
      }

      .cls-1, .cls-2, .cls-3, .cls-4, .cls-6, .cls-7, .cls-8 {
        stroke-width: 2px;
      }

      .cls-1, .cls-9 {
        fill: #fff;
      }

      .cls-10, .cls-2 {
        fill: #ffd9df;
      }

      .cls-3, .cls-11 {
        fill: #d13d4c;
      }

      .cls-12 {
        fill: #9d3333;
      }

      .cls-13 {
        fill: #673936;
      }

      .cls-14, .cls-8 {
        fill: #f3bfb4;
      }

      .cls-4 {
        fill: #949494;
      }

      .cls-15 {
        fill: #a8313d;
      }

      .cls-5 {
        stroke-width: 1.5px;
      }

      .cls-5, .cls-6 {
        fill: none;
      }

      .cls-16 {
        fill: #d55d56;
      }

      .cls-17 {
        fill: #c16c59;
      }

      .cls-7 {
        fill: #bea094;
      }

      .cls-18 {
        fill: #a25544;
      }

      .cls-19 {
        fill: #ffb4b4;
      }
    </style>
  </defs>
  <g>
    <path class="cls-9" d="M115.25,272.42s-6.12,32-12.12,45.75h-22.17l-3.79-45.75h38.08Z"/>
    <path class="cls-14" d="M108.45,302c-8.75.68-20.2.54-28.88-.51l-2.41-29.07h38.08s-2.97,15.51-6.8,29.58Z"/>
    <path class="cls-6" d="M115.25,272.42s-6.12,32-12.12,45.75h-22.17l-3.79-45.75h38.08Z"/>
  </g>
  <g>
    <path class="cls-9" d="M64.57,272.42s-6.12,32-12.12,45.75h-22.17l-3.79-45.75h38.08Z"/>
    <path class="cls-14" d="M57.77,302c-8.75.68-20.2.54-28.87-.51l-2.41-29.07h38.08s-2.97,15.51-6.8,29.58Z"/>
    <path class="cls-6" d="M64.57,272.42s-6.12,32-12.12,45.75h-22.17l-3.79-45.75h38.08Z"/>
  </g>
  <g>
    <path class="cls-1" d="M77.87,329.92v3.56c0,.56.44,1.69,1.81,1.69h36.44c1.37,0,1.81-1.12,1.81-1.69v-3.56h-40.06Z"/>
    <g>
      <path class="cls-1" d="M114,321.29c2.69,1.68,3.94,3.69,3.94,4.19v4.44h-10.08c1.26-6.79,6.14-8.63,6.14-8.63Z"/>
      <path class="cls-3" d="M79.62,317.17c.31-1.19,1.15-1.19,1.15-1.19h17.1c2.12-2.56,5.56-3.32,7.35-3.32,0,0,5.27,4.13,8.77,8.63,0,0-4.88,1.83-6.14,8.63h-29.99c0-5,1.44-11.56,1.75-12.75Z"/>
    </g>
    <path class="cls-5" d="M109.2,325.96c.62-1.54-.42-3.08-1.75-4.04-1.33-.96-9.58-5.94-9.58-5.94"/>
  </g>
  <g>
    <path class="cls-3" d="M54.02,314.16h-24.08s-.86.84-1.32,2.18-2.96,8.77-3.21,13.58h31.19s.34-1.62.22-2.62-2.8-13.13-2.8-13.13Z"/>
    <path class="cls-1" d="M25.42,329.92v3.56c0,.56.44,1.69,1.81,1.69h27.81c1.37,0,1.81-1.12,1.81-1.69v-3.56h-31.43Z"/>
    <path class="cls-1" d="M51.67,329.92c-1.26-6.79-6.14-8.63-6.14-8.63h-7.78s-4.88,1.83-6.14,8.63h20.06Z"/>
    <path class="cls-5" d="M36.95,321.69c1.14-.77,1.23-1.89,1.26-3.06.04-1.42,0-4.47,0-4.47"/>
    <path class="cls-5" d="M46.17,321.69c-1.14-.77-1.23-1.89-1.26-3.06-.04-1.42,0-4.47,0-4.47"/>
  </g>
  <g>
    <path class="cls-7" d="M23.23,244.17c.12-1.62-1.87-13.38,4.87-28.06l87.58.4s3.89,8.94,6.31,17.02c0,0-.75,7.77-2.6,13.4-1,11.58-6.81,55.78-9.81,69.2,0,0-10.92,0-30.95,0l-6.34-54.38c-2.17,10.42-13.67,46.17-15.47,54.25h-30.37l-2.35-52.56c.12-4.88.62-14.12.62-14.12,0,0-1.62-3.5-1.5-5.12Z"/>
    <path class="cls-6" d="M72.29,261.73s5.26-11.58,5.56-14.69c1.5-15.38,1.5-30.71,1.5-30.71"/>
    <path class="cls-5" d="M72.75,260.71s-2.14-5.54-2.14-11.17v-33.25"/>
    <path class="cls-13" d="M120.12,247.61c-4.54,4.32-9.28,8.41-14.73,11.53-.19.11-.43.04-.54-.15-.1-.19-.04-.42.14-.53,5.1-3.37,9.56-7.74,13.68-12.22.92-1.01,2.42.4,1.45,1.38h0Z"/>
    <path class="cls-13" d="M115.45,256.88c-2,1.63-4.08,3.04-6.38,4.17-.2.1-.44.02-.53-.18-.09-.18-.03-.39.13-.5,1.97-1.41,3.79-3.13,5.38-4.93.97-1.05,2.47.5,1.39,1.44h0Z"/>
    <path class="cls-13" d="M72.51,259.39c7.41-3.48,14.55-7.93,20.37-13.74.34-.37.93.17.58.54-4.22,4.69-9.28,8.54-14.61,11.88-1.79,1.11-3.59,2.16-5.5,3.14-.49.25-1.09.06-1.35-.43-.27-.51-.03-1.15.5-1.38h0Z"/>
    <path class="cls-13" d="M27.73,250.84c5.81-1.1,11.54-3.31,16.4-6.72.4-.29.87.34.47.64-4.82,3.87-10.51,6.5-16.49,8.04-1.34.3-1.74-1.74-.38-1.96h0Z"/>
    <path class="cls-13" d="M34.55,252.54c2.46-.46,5.08-.95,7.36-2,.42-.22.79.43.4.68-2.27,1.49-4.75,2.36-7.28,3.26-.53.18-1.09-.1-1.27-.63-.2-.58.19-1.22.79-1.31h0Z"/>
    <path class="cls-13" d="M27.66,241.23c-1.39.87-2.76,1.7-4.23,2.44-.2.1-.44.02-.54-.18-.08-.17-.04-.36.09-.48,1.19-1.04,2.32-2.19,3.4-3.33,1.07-1.05,2.51.71,1.26,1.55h0Z"/>
  </g>
  <path class="cls-2" d="M17.88,225.71l1.56,5.27s1.27,5.52,7.58,9.48c4.35-2.79,10.13-10.83,11.8-17.17l-7.64-6.12s-6.56,2.29-13.31,8.54Z"/>
  <g>
    <rect class="cls-10" x="53.04" y="108.5" width="28.67" height="31.75"/>
    <path class="cls-14" d="M53.04,123.74c3.56.75,7.5,1.18,11.87,1.18,6.52,0,12.08-.7,16.79-1.79v-14.63h-28.67v15.24Z"/>
    <rect class="cls-6" x="53.04" y="108.5" width="28.67" height="31.75"/>
  </g>
  <path class="cls-4" d="M45.79,123.25h7.25s4.42,10.67,14.33,10.67,14.16-10.67,14.16-10.67h4.37l26.39,103.5s-47.55,11.08-71.53-3.46v-96.04l5.03-4Z"/>
  <g>
    <path class="cls-11" d="M81.71,140.25v-31.75s5.17,1.54,6.67,2.79,2.76,4.88,3.26,6.12c.49,1.25,10.22,12.5,11.11,13.75s0,3.62,0,3.62c0,0,9.41,5.88,10.59,7.25,1.17,1.38,21.8,46.7,22.67,49.04.87,2.34-4,36.46-13,49.59-1.25.5-2.75.62-2.75.62,0,0-2.12,1.25-4.37,1.25h-25c-2.12,0-3.37-1-3.37-3.75s.12-29.75-5.79-98.54Z"/>
    <path class="cls-15" d="M91.63,117.42c-.49-1.25-1.76-4.88-3.26-6.12s-6.67-2.79-6.67-2.79v31.75s8.05-8.37,14.29-17.21c-2.21-2.66-4.15-5.08-4.36-5.62Z"/>
    <path class="cls-6" d="M120.25,241.29s.79-8.04-.71-15.54h-32.26"/>
    <path class="cls-13" d="M113.63,174.29c-1-9.01-1.92-18.11-4.1-26.91-.15-.54.68-.8.86-.25,2.56,8.8,3.86,17.88,5.23,26.92.17,1.32-1.82,1.58-1.99.24h0Z"/>
    <path class="cls-6" d="M119.54,225.75s4-7.17,4.33-9.58c.33-2.42-1.75-19.17-8.33-33.92-.29-2.78-.6-5.49-.92-8.09"/>
    <path class="cls-13" d="M103.63,135.25l-13.01,24.5c-.33.62-1.29.14-.98-.5,0,0,12.21-24.91,12.21-24.91.61-1.18,2.39-.29,1.78.91h0Z"/>
    <path class="cls-6" d="M105.54,188.67s4.92,15.5,12.67,26.58"/>
    <path class="cls-6" d="M81.71,140.25v-31.75s5.17,1.54,6.67,2.79,2.76,4.88,3.26,6.12c.49,1.25,10.22,12.5,11.11,13.75s0,3.62,0,3.62c0,0,9.41,5.88,10.59,7.25,1.17,1.38,21.8,46.7,22.67,49.04.87,2.34-4,36.46-13,49.59-1.25.5-2.75.62-2.75.62,0,0-2.12,1.25-4.37,1.25h-25c-2.12,0-3.37-1-3.37-3.75s.12-29.75-5.79-98.54Z"/>
  </g>
  <g>
    <path class="cls-11" d="M53.04,108.5s-5.17,1.54-6.67,2.79-2.76,4.88-3.26,6.12c-.49,1.25-10.22,12.5-11.11,13.75-.89,1.25,0,3.62,0,3.62,0,0-6.59,7.75-7.76,9.12-1.17,1.38-22.37,43.91-23.25,46.25,0,8.88,3.3,27.39,6.25,30.75,1.81,2.06,4.94,2.38,4.94,2.38,0,0,4,6.56,5.06,7.44s2.19.25,2.19.25c0,0,6.25-10,11.75-13.81,0,0,11.56,22.88,12.56,24.12.81,1.01,1.62,1.22,2.13,1.25h2.25c2.12,0,3.37-1,3.37-3.75s-4.37-29.75,1.54-98.54v-31.75Z"/>
    <path class="cls-15" d="M46.37,111.29c-1.5,1.25-2.76,4.88-3.26,6.12-.14.37-1.08,1.59-2.35,3.17,2.26,5.32,6.18,12.89,12.28,19.67v-31.75s-5.17,1.54-6.67,2.79Z"/>
    <path class="cls-13" d="M32.86,134.26l14.48,23.74c.36.6-.54,1.19-.93.59,0,0-15.24-23.26-15.24-23.26-.71-1.12.97-2.2,1.69-1.07h0Z"/>
    <path class="cls-6" d="M42.98,188.67s-4.65,15.64-12.4,26.72"/>
    <path class="cls-13" d="M26.05,201.53c-2.55-5.71-6.19-11.03-10.88-15.29-.4-.34.13-.98.54-.64,5.05,4.06,9.13,9.28,12.14,15.07.6,1.22-1.24,2.1-1.81.86h0Z"/>
    <path class="cls-13" d="M24.76,198.18c1.37-7.17,1.09-14.74-.79-21.82-.14-.51.63-.75.8-.24,1.16,3.58,1.9,7.3,2.23,11.06.32,3.76.27,7.56-.27,11.35-.08.55-.58.93-1.13.85-.57-.08-.96-.63-.84-1.19h0Z"/>
    <path class="cls-6" d="M31.19,217.17s-1.94-5.75-3.06-8.62c0,0,.5-1.81.44-3.12-.02-.46-.55-2.08-1.61-4.32"/>
    <path class="cls-6" d="M12.19,223.29s5.75-12.94,15.94-14.75"/>
    <path class="cls-13" d="M30.89,214.02c1.81.03,3.63.12,5.45.34.26.02.61.12.85.25,3.67,2.67,6.91,5.74,9.98,9.11.4.44-.27,1.09-.69.66-1.13-1.08-2.38-2.08-3.6-3.1-2.11-1.69-4.26-3.49-6.56-4.89,0,0-.05-.03-.05-.03.1.05.05,0-.15,0-1.75-.13-3.54-.18-5.31-.33-.55-.04-.97-.53-.92-1.08.04-.53.49-.92,1.01-.92h0Z"/>
    <path class="cls-6" d="M53.04,108.5s-5.17,1.54-6.67,2.79-2.76,4.88-3.26,6.12c-.49,1.25-10.22,12.5-11.11,13.75-.89,1.25,0,3.62,0,3.62,0,0-6.59,7.75-7.76,9.12-1.17,1.38-22.37,43.91-23.25,46.25,0,8.88,3.3,27.39,6.25,30.75,1.81,2.06,4.94,2.38,4.94,2.38,0,0,4,6.56,5.06,7.44s2.19.25,2.19.25c0,0,6.25-10,11.75-13.81,0,0,11.56,22.88,12.56,24.12.81,1.01,1.62,1.22,2.13,1.25h2.25c2.12,0,3.37-1,3.37-3.75s-4.37-29.75,1.54-98.54v-31.75Z"/>
  </g>
  <path class="cls-8" d="M107.95,80.23c2.06-2.62,5.37-2.69,7.25-1.06s3.24,4.31,1.93,10.12c-1.21,5.36-6.3,11.5-13.12,10.12l3.94-19.19Z"/>
  <g>
    <path class="cls-10" d="M19.14,77.77h-.02c-5.75-33.63,10.33-58.47,47.58-58.47s44.62,26.75,45.5,41.62c4,24.75-1.12,57-40.25,57-29.75,0-39.5-14.5-39.5-14.5-8.12.62-16.79-5.33-18.04-14.25-.98-6.99,1.41-10.59,4.73-11.4Z"/>
    <g>
      <path class="cls-12" d="M82.02,102.9c1.41.39-.9,8.58-10.65,7.83-9.75-.75-9.5-8.5-8.25-9.5s12.05-.25,18.9,1.67Z"/>
      <path class="cls-16" d="M72.07,104.03c3.98.6,6.37,2.39,7.73,4.3-1.75,1.52-4.47,2.7-8.43,2.4-4.64-.36-7.01-2.3-8.09-4.34,1.52-1.72,4.25-3.04,8.79-2.36Z"/>
      <path class="cls-9" d="M81.53,102.77c-.71.88-1.91,1.87-3.79,2.02-3.5.29-10.46-.06-12.42-.95-.94-.43-1.67-1.57-2.18-2.63,1.33-.95,11.56-.25,18.38,1.56Z"/>
      <path class="cls-5" d="M82.02,102.9c1.41.39-.9,8.58-10.65,7.83-9.75-.75-9.5-8.5-8.25-9.5s12.05-.25,18.9,1.67Z"/>
    </g>
    <path class="cls-13" d="M89.81,68.66c2.89-4.3,9.25-4.66,13.52-2.49.29.14.41.48.27.77-.11.24-.37.36-.62.32-4.37-.77-8.8-.82-12.32,2.16-.49.43-1.23-.25-.85-.77h0Z"/>
    <path class="cls-13" d="M65.44,69.43c-3.52-2.99-7.96-2.93-12.33-2.16-.64.12-.93-.83-.34-1.09,4.27-2.17,10.63-1.82,13.52,2.49.38.53-.37,1.2-.85.77h0Z"/>
    <path class="cls-18" d="M51.66,81c0,2.9,1.98,5.25,4.42,5.25s4.42-2.35,4.42-5.25-1.98-5.25-4.42-5.25-4.42,2.35-4.42,5.25Z"/>
    <path class="cls-18" d="M91.63,81c0,2.9,1.98,5.25,4.42,5.25s4.42-2.35,4.42-5.25-1.98-5.25-4.42-5.25-4.42,2.35-4.42,5.25Z"/>
    <path class="cls-13" d="M62.33,79.72c-3.82-3.88-8.58-3.9-12.57-.43-.65.57-1.61-.28-1.13-.99,1.59-2.51,4.52-4.39,7.63-4.2,3.18.16,6,2.13,7.3,4.77.39.77-.66,1.48-1.23.85h0Z"/>
    <path class="cls-13" d="M89.58,80.08c1.77-3.91,6.71-7.26,10.97-5.02,1,.45,4.27,3.08,2.96,4-.28.18-.63.16-.88-.03-1-.76-2.01-1.43-3.03-1.8-3.41-1.2-6.46,1.4-8.79,3.7-.56.64-1.63-.11-1.23-.85h0Z"/>
    <path class="cls-13" d="M78.88,93.46l1.78-.52c.33-.1.67.09.76.42.07.24,0,.48-.18.63l-1.39,1.23c-1.3,1.03-2.53-1.2-.97-1.75h0Z"/>
    <g>
      <path class="cls-19" d="M51.3,91.97l-1.37-2.12c-.18-.26.17-.58.41-.39,0,0,2.05,1.48,2.05,1.48.94.74-.39,2.01-1.09,1.03h0Z"/>
      <path class="cls-19" d="M54.21,92.05l-1.37-2.12c-.18-.26.17-.58.41-.39,0,0,2.05,1.48,2.05,1.48.94.74-.39,2.01-1.09,1.03h0Z"/>
      <path class="cls-19" d="M57.12,92.13l-1.37-2.12c-.18-.26.17-.58.41-.39,0,0,2.05,1.48,2.05,1.48.94.74-.39,2.01-1.09,1.03h0Z"/>
      <path class="cls-19" d="M96.38,92.87l-1.37-2.12c-.09-.13-.05-.31.09-.4.1-.07.23-.06.32,0l2.05,1.48c.94.74-.4,2.01-1.09,1.03h0Z"/>
      <path class="cls-19" d="M99.29,92.95l-1.37-2.12c-.18-.26.17-.58.41-.39,0,0,2.05,1.48,2.05,1.48.94.74-.39,2.01-1.09,1.03h0Z"/>
      <path class="cls-19" d="M102.19,93.03l-1.37-2.12c-.18-.26.17-.58.41-.39,0,0,2.05,1.48,2.05,1.48.94.75-.4,2.01-1.09,1.03h0Z"/>
    </g>
    <path class="cls-6" d="M19.12,77.76c-5.75-33.62,10.33-58.46,47.58-58.46s44.62,26.75,45.5,41.62c4,24.75-1.12,57-40.25,57-29.75,0-39.5-14.5-39.5-14.5-8.12.62-16.79-5.33-18.04-14.25-1.08-7.68,1.91-11.29,5.73-11.57"/>
  </g>
  <g>
    <path class="cls-18" d="M112.08,71c-14.96-8.83-18.37-21.32-18.37-21.32-2.1,8.4-6.74,14.01-9.67,15.24-.83-1.5-.67-5.08-.67-5.08,0,0-10,8.58-18.41,9.2-3.24-5.2-4.82-13-4.98-19.36-5.64,12.58-20.63,17.32-20.63,17.32-.45,6.43.44,13.11,3.35,16.85-4.14.04-11.25-1.46-16.54-5.56l-1.24,4.38h-7.13s-8.67-3.84-6.83-16.84c-2.59-.83-4.92-4.33-4.92-4.33,0,0,2.92-1.58,3.92-8.16,1-6.59,4.41-16.67,11.75-26.25,7.33-9.59,19.25-16.5,32.5-17.5s21.16,1.66,21.16,1.66c0,0,8.67-5.08,10.09-10.25,3.81,2.64,3.7,7.98.44,11.19,0,0,16.81,1.65,26.39,12.73,7.56,8.74,12.25,25.33,13.33,31.67,1.09,6.33,4.59,9.75,4.59,9.75,0,0-2.09,2-4.92,1.1-.83,10.35-9.25,17.4-16.42,16.41,2.43-3.44,3.19-8.27,3.21-12.85Z"/>
    <path class="cls-17" d="M21.33,27.49c4.26,3.33,12.57,7.33,26.45,9.79,3.83.68,2.38,2.5,0,3.12-2.1.55-16.92,5.02-34.82,2.57,1.91-5.79,4.58-11.12,8.38-15.49Z"/>
    <path class="cls-17" d="M118.19,34.2c-3.58,1.16-7.77,2.22-12.68,3.09-3.83.68-2.37,2.5,0,3.12,1.31.35,7.6,2.22,16.5,2.98-1.07-3.03-2.34-6.19-3.82-9.19Z"/>
    <g>
      <path class="cls-13" d="M25.55,79.08c-4.18-3.27-6.83-8.49-6.79-13.8,0-.34.27-.62.61-.62.33,0,.6.25.62.58.24,4.92,2.8,9.43,6.79,12.26,1.07.81-.16,2.42-1.22,1.58h0Z"/>
      <path class="cls-6" d="M39.35,67c-.45,6.43.44,13.11,3.35,16.85-4.14.04-11.25-1.46-16.54-5.56"/>
      <path class="cls-13" d="M43.88,52.65c-2.57,4.25-3.26,9.51-3.52,14.42-.07,1.31-2.02,1.25-2-.07.26-2.63.73-5.23,1.45-7.77.73-2.5,1.65-5,3.23-7.18.17-.23.49-.28.72-.11.23.17.28.48.12.71h0Z"/>
      <path class="cls-6" d="M26.16,78.29l-1.24,4.38h-7.13s-8.67-3.84-6.83-16.84c-2.59-.83-4.92-4.33-4.92-4.33,0,0,2.92-1.58,3.92-8.16,1-6.59,4.41-16.67,11.75-26.25,7.33-9.59,19.25-16.5,32.5-17.5s21.16,1.66,21.16,1.66c0,0,8.67-5.08,10.09-10.25,3.81,2.64,3.7,7.98.44,11.19-1.36,1.34-3.28,2.32-5.69,2.56"/>
      <path class="cls-13" d="M92.74,49.44c2.07-7.52,1.49-15.63-1.03-23-.22-.64.75-1,1-.36,1.43,3.75,2.41,7.7,2.78,11.73.37,4.03.11,8.14-.8,12.12-.12.54-.66.87-1.2.75-.55-.13-.89-.69-.74-1.24h0Z"/>
      <path class="cls-6" d="M59.98,49.68c.16,6.36,1.74,14.16,4.98,19.36,8.41-.62,18.41-9.2,18.41-9.2,0,0-.16,3.58.67,5.08,2.93-1.23,7.57-6.84,9.67-15.24"/>
      <path class="cls-13" d="M61.05,42.87c-.32,2.23-.26,4.53-.07,6.79.08,1.39-2.02,1.45-2,.05.09-2.38.32-4.75.95-7.08.08-.3.4-.49.7-.4.29.08.46.36.42.64h0Z"/>
      <path class="cls-6" d="M39.35,67s14.99-4.74,20.63-17.32"/>
      <path class="cls-6" d="M112.08,71c-.02,4.58-.78,9.41-3.21,12.85,7.17.99,15.59-6.06,16.42-16.41,2.83.9,4.92-1.1,4.92-1.1,0,0-3.5-3.42-4.59-9.75-1.08-6.34-5.77-22.93-13.33-31.67-9.58-11.08-26.39-12.73-26.39-12.73"/>
      <path class="cls-13" d="M111.03,57.52c1.2,4.42,1.91,8.9,2.05,13.48.02.55-.42,1.01-.97,1.03-.57.02-1.05-.46-1.03-1.03.14-4.39-.3-8.88-1.19-13.19-.18-.73.93-1.02,1.13-.3h0Z"/>
      <path class="cls-6" d="M93.71,49.68s3.41,12.49,18.37,21.32"/>
    </g>
  </g>
  <g>
    <path class="cls-10" d="M14.41,89.17c-.98-6.99,1.41-10.59,4.73-11.4,3.81-.1,9.03,2.28,12.85,9.53s4.03,13.44.47,16.12c-8.12.62-16.79-5.33-18.04-14.25Z"/>
    <path class="cls-10" d="M20.2,86c.15-.37.56-.55.93-.4.18.07.34.12.54.21.2.09.39.18.57.27.36.18.7.39,1.04.61.67.44,1.29.95,1.86,1.51,1.14,1.12,2.14,2.46,2.68,4.1v.04c.12.37,0,.79-.32,1.05-.43.34-1.05.28-1.39-.15-.25-.32-.58-.58-.95-.76-.37-.18-.78-.28-1.17-.27-.2,0-.38.04-.56.1-.17.06-.33.15-.47.26-.14.12-.26.25-.36.42-.1.17-.17.36-.23.56l-.03.09c-.11.35-.47.56-.83.49-.39-.08-.65-.46-.57-.86.07-.33.15-.67.31-.99.16-.32.37-.62.63-.89.27-.26.58-.47.92-.62.34-.14.69-.24,1.04-.28.31-.04.62-.03.93,0-.26-.38-.55-.76-.86-1.1-.47-.51-.98-.99-1.54-1.41-.28-.21-.56-.41-.86-.59-.15-.09-.29-.16-.43-.24-.13-.08-.33-.15-.49-.23h-.03c-.34-.17-.5-.57-.36-.93Z"/>
    <path class="cls-2" d="M34.8,106.03c-1.63-1.55-2.35-2.61-2.35-2.61-8.12.62-16.79-5.33-18.04-14.25-1.08-7.68,1.91-11.27,5.73-11.57"/>
    <g>
      <path class="cls-10" d="M20.13,77.6c.62-.05,1.25,0,1.9.12,3.63.69,5.51,2.77,6.67,4.96"/>
      <path class="cls-13" d="M20.06,76.6c3.88-.13,7.65,2.3,9.2,5.78.15.31.02.69-.29.84-.3.14-.66.03-.82-.25-.83-1.45-1.96-2.67-3.38-3.4-1.35-.71-3.05-1.13-4.55-.97-1.37.14-1.53-1.92-.15-1.99h0Z"/>
    </g>
  </g>
</svg>