<?xml version="1.0" encoding="UTF-8"?>
<svg id="Layer_2" data-name="Layer 2" xmlns="http://www.w3.org/2000/svg" viewBox="0 0 54.98 53.67">
  <defs>
    <style>
      .cls-1 {
        fill: #fff;
      }

      .cls-2 {
        fill: none;
        stroke: #fff;
        stroke-width: 2px;
      }
    </style>
  </defs>
  <g id="Layer_1-2" data-name="Layer 1">
    <path class="cls-2" d="M53.98,26.83c.01,14.26-11.83,25.81-26.44,25.83h-.25c-14.63-.11-26.4-11.76-26.29-26.03C1.11,12.37,13.06.89,27.69,1c14.55.11,26.29,11.64,26.29,25.83Z"/>
    <path class="cls-1" d="M41.45,34.75c0,3.24-2.69,5.85-6.01,5.86h-15.91c-3.31,0-6-2.62-6-5.86v-15.51c0-3.23,2.69-5.84,6-5.85h15.91c3.31,0,6,2.62,6.01,5.85v15.51ZM35.44,11.04h-15.91c-4.64,0-8.4,3.67-8.41,8.19v15.51c0,4.52,3.76,8.2,8.41,8.2h15.91c4.64,0,8.4-3.68,8.41-8.2v-15.51c0-4.52-3.77-8.19-8.41-8.19Z"/>
    <path class="cls-1" d="M27.49,32.73c-3.25,0-5.89-2.57-5.89-5.74s2.64-5.74,5.89-5.74,5.89,2.57,5.89,5.74-2.64,5.73-5.89,5.74ZM27.49,18.91c-4.58,0-8.29,3.62-8.29,8.08s3.71,8.08,8.29,8.08,8.29-3.62,8.29-8.08-3.71-8.07-8.29-8.08Z"/>
    <path class="cls-1" d="M38.63,18.54c0,.99-.83,1.8-1.85,1.8s-1.85-.81-1.85-1.8.83-1.8,1.85-1.8,1.85.81,1.85,1.8Z"/>
  </g>
</svg>