<?xml version="1.0" encoding="UTF-8"?>
<svg id="Layer_2" data-name="Layer 2" xmlns="http://www.w3.org/2000/svg" viewBox="0 0 49.93 48.73">
  <defs>
    <style>
      .cls-1 {
        fill: #fff;
      }

      .cls-2 {
        fill: none;
        stroke: #fff;
        stroke-width: 2px;
      }
    </style>
  </defs>
  <g id="Layer_1-2" data-name="Layer 1">
    <path class="cls-2" d="M48.93,24.37c0,12.9-10.73,23.37-23.96,23.37S1,37.27,1,24.37,11.73,1,24.96,1s23.96,10.44,23.96,23.35v.03"/>
    <path class="cls-1" d="M17.83,14.28c-.01,1.84-1.56,3.33-3.45,3.32-1.89,0-3.41-1.52-3.4-3.36.01-1.83,1.54-3.32,3.42-3.32s3.42,1.5,3.42,3.34v.02"/>
    <path class="cls-1" d="M26.54,22.27v-2.84h-5.55v18.38h5.55v-7.63c0-.65-.02-1.31.02-1.97.02-.53.12-1.05.3-1.55.24-.74.77-1.36,1.46-1.73.55-.26,1.16-.39,1.77-.37.42,0,.84.07,1.23.21.71.3,1.26.89,1.5,1.61.25.69.37,1.41.35,2.15v9.26h5.77v-10.94c0-.51-.02-1.01-.08-1.52-.08-.74-.26-1.47-.54-2.16-.5-1.3-1.47-2.36-2.73-3-1-.49-2.11-.75-3.23-.75-.48,0-.96.02-1.44.11-1.37.22-2.62.88-3.57,1.86-.3.3-.57.64-.8,1v-.13"/>
    <path class="cls-1" d="M17.33,19.43h-5.79v18.38h5.79v-18.38Z"/>
  </g>
</svg>