<?xml version="1.0" encoding="UTF-8"?>
<svg id="Layer_2" data-name="Layer 2" xmlns="http://www.w3.org/2000/svg" viewBox="0 0 396 210.58">
  <defs>
    <style>
      .cls-1 {
        fill: #000094;
      }
    </style>
  </defs>
  <g id="Layer_1-2" data-name="Layer 1">
    <path class="cls-1" d="M97.49,20.8c27-28.8,67.8-24.1,86.1-7.6-1.2,1.3-2.5,2.6-3.7,3.9-13.2,13.2-26.5,26.3-39.7,39.5-6.2,6.2-6.1,11-.1,17.1,16,16.3,31.9,32.7,47.9,48.9,7.8,7.9,11.9,7.9,19.7.3,13.2-13,26.3-26,39.5-39,1.3-1.3,2.6-2.5,5.1-4.8,2.9,3.4,5.4,6.7,8.3,9.7,20.1,20.2,40.4,40.2,60.6,60.3,1.2,1.2,2.4,2.4,3.7,3.3,4.1,2.9,9.6,2.4,12.8-1.1,3.2-3.4,3.4-8.9,0-12.7s-7.2-7.4-10.9-11c-24-24-48.1-48.1-72.1-72.1-.8-.8-1.7-1.5-2.8-2.5-17.5,17.8-34.9,35.4-51.9,52.6-13.8-13.7-26.8-26.6-40.1-39.9.8-.9,1.8-2.1,3-3.3,13.4-13.4,26.9-26.8,40.3-40.3,28.6-28.5,68.5-28.4,97.1.2,25.3,25.4,50.8,50.6,76,76,22.2,22.3,26,55.5,9.6,81.8-21.4,34.3-69.4,40.9-99,13.4-10.7-10-20.9-20.6-31.3-31-1.3-1.3-2.1-3-3.4-4.8-3.9,3.7-6.6,6.3-9.4,8.9-25.2,23.4-64,23.6-88.9-.2-18.8-17.9-37.1-36.4-55.3-55-24.9-25.6-25.3-63.6-1.1-90.7v.1h0Z"/>
    <path class="cls-1" d="M79.89,144.11c3.7-4.1,7.2-7.9,10.4-11.4,13.6,13.9,26.4,26.9,39.5,40.2-15,15.2-29.2,33.1-53.9,36.6-26.8,3.8-53.4-8.5-67-32.1-13.6-23.6-11.7-54,6.4-74.2,13.9-15.5,29.5-29.3,45-44.4-.8,21.8,4.8,41.7,18.6,59.4-6,5.8-11.7,11.4-17.3,17-6.4,6.4-7.4,12.2-3.1,16.4,4.6,4.4,10.2,3.5,16.5-2.7,1.5-1.5,3.1-3,4.9-4.8h0Z"/>
  </g>
</svg>