<?xml version="1.0" encoding="UTF-8"?>
<svg id="Layer_1" xmlns="http://www.w3.org/2000/svg" viewBox="0 0 567.52 702.31">
  <defs>
    <style>
      .cls-1 {
        fill: #454545;
      }

      .cls-2 {
        fill: #00ffff;
      }
    </style>
  </defs>
  <g>
    <path class="cls-2" d="M120.93,20.8c27-28.8,67.8-24.1,86.1-7.6-1.2,1.3-2.5,2.6-3.7,3.9-13.2,13.2-26.5,26.3-39.7,39.5-6.2,6.2-6.1,11-.1,17.1,16,16.3,31.9,32.7,47.9,48.9,7.8,7.9,11.9,7.9,19.7.3,13.2-13,26.3-26,39.5-39,1.3-1.3,2.6-2.5,5.1-4.8,2.9,3.4,5.4,6.7,8.3,9.7,20.1,20.2,40.4,40.2,60.6,60.3,1.2,1.2,2.4,2.4,3.7,3.3,4.1,2.9,9.6,2.4,12.8-1.1,3.2-3.4,3.4-8.9,0-12.7s-7.2-7.4-10.9-11c-24-24-48.1-48.1-72.1-72.1-.8-.8-1.7-1.5-2.8-2.5-17.5,17.8-34.9,35.4-51.9,52.6-13.8-13.7-26.8-26.6-40.1-39.9.8-.9,1.8-2.1,3-3.3,13.4-13.4,26.9-26.8,40.3-40.3,28.6-28.5,68.5-28.4,97.1.2,25.3,25.4,50.8,50.6,76,76,22.2,22.3,26,55.5,9.6,81.8-21.4,34.3-69.4,40.9-99,13.4-10.7-10-20.9-20.6-31.3-31-1.3-1.3-2.1-3-3.4-4.8-3.9,3.7-6.6,6.3-9.4,8.9-25.2,23.4-64,23.6-88.9-.2-18.8-17.9-37.1-36.4-55.3-55-24.9-25.6-25.3-63.6-1.1-90.7v.1Z"/>
    <path class="cls-2" d="M103.33,144.1c3.7-4.1,7.2-7.9,10.4-11.4,13.6,13.9,26.4,26.9,39.5,40.2-15,15.2-29.2,33.1-53.9,36.6-26.8,3.8-53.4-8.5-67-32.1-13.6-23.6-11.7-54,6.4-74.2,13.9-15.5,29.5-29.3,45-44.4-.8,21.8,4.8,41.7,18.6,59.4-6,5.8-11.7,11.4-17.3,17-6.4,6.4-7.4,12.2-3.1,16.4,4.6,4.4,10.2,3.5,16.5-2.7,1.5-1.5,3.1-3,4.9-4.8h0Z"/>
    <path class="cls-2" d="M77.72,328.14c-.2,0-1.04-.03-1.29-.03h-21.5c-.5,0-.9-.4-.9-.9v-39.7c0-.8-.5-1.5-1-2.3s-1.2-.5-1.5,0-.9,1.5-.9,2.2c-.1,11.7,0,23.3,0,35v4.7c0,1.7-.4.9-.9.9h-21.7c-.5,0-.9-.4-.9-.9v-39c0-1.2-.5-2.4-.9-3.6s-.6-.7-1-.6h-.2c-.5,0-.8.5-.8.9v42.6c0,.5-.4.9-.9.9-7.6,0-14.6,0-21.5-.1-.6,0-1.7-1.9-1.7-3,0-14.9-.3-29.7,0-44.6s7.2-16,15.9-16.5c8-.5,16.3-1.2,22.6,6,.4.4,1,.4,1.4,0,6.1-7,14.2-6.5,22.3-6,9.7.6,15.1,6.4,15.3,16.3.2,11.5,0,23,0,35l.09,7.88"/>
    <path class="cls-2" d="M171.83,306.4v-40.9c0-.5.4-.9.9-.9h36.3c10.4,0,16.4,7.2,16.7,16.2.4,11.3.3,22.7,0,34-.3,7.7-6,13.3-13.5,13.4-12.8.3-25.6,0-38.4,0-.4,0-.7-.2-1.3-.5s-.6-.5-.6-.8v-20.6M197.23,295.9c0,12.2,0,13.9,2,14.3s1.1-.3,1.1-.9v-26.4c0-.4-.3-.8-.7-.9h0c-.4-.1-.8,0-1.1.4-.5,1-1.2,2-1.3,3-.2,3.1,0,6.3,0,10.4v.1Z"/>
    <path class="cls-2" d="M389.21,326.08c-1.18-17.15-.36-32.73-.29-50.37.2-2.85-.35-9.55-.35-9.55.72-2.1,6.59-.99,9.09-1,4.85.39,9.86-.37,14.39,1.36,3.75,1.99,5.14,6.61,6.43,10.38.66,2.19,1.34,4.61,2,6.68.27.76.74,2.34,1.57,1.59,1.31-1.63.28-4.77-.26-6.7-1-4.23-2.91-8.71-3.12-13.12.1-1.13.92-1.35,2.74-1.26,1.58.07,2.92.06,4.86.06,3.94.02,9.99-.06,13.51.06,2.6.16,3.28.55,3.47,1.71-.09,10.44.7,49.98-.29,60.96-.8.95-2.65,1.08-4.1,1.21-2.12.16-4.38.12-6.53.14-4.07,0-8.71.17-12.04-2.05-3.54-2.34-5.07-6.55-6.49-10.37-.83-1.98-1.99-7-4-7.27-.55.15-.59,1.69-.09,3.61.78,2.81,1.72,5.85,2.63,8.7.49,1.72,1.19,3.55.6,5.28-.94,2.33-4.27,2.19-7.44,2.22-4.48,0-9.34-.07-13.99-.19-.71,0-.71-.03-1.22-.04-1-.07-1.06-.23-1.04-1.39,0-.16,0-.34-.02-.54v-.12Z"/>
    <path class="cls-2" d="M151.83,299.4v28c0,.5-.4.9-.9.9-7.5,0-14.7,0-21.8-.1-.9,0-2.3-1.7-2.4-2.8-.3-2.8,0-5.7-.2-8.5,0-.6-.5-1.1-1-1.7s-1-.4-1.4,0-1,1.1-1,1.7c-.2,3.3.05,6.7,0,10.4-.01.93-.4.9-.9.9-7.5,0-14.5.1-21.5-.1-1,0-2.7-1.9-2.7-2.9-.1-15.5-.3-30.9.2-46.4.3-8.9,5.6-14.1,14.6-14.6,8.1-.5,16.3-.5,24.4,0,9.3.6,14.4,6.4,14.8,16.2.2,6.1,0,12.3,0,19M126.83,287.11c0-.7.2-1.4,0-2-.4-.8-.8-1.6-1.3-2.3s-1.2-.6-1.6,0-1,1.7-1,2.5c-.3,2.8-.2,5.6,0,8.4,0,.7.6,1.4,1.2,2s1,.4,1.4,0c.6-.6,1.2-1.2,1.3-1.9.3-1.9,0-4,.1-6.8l-.1.1Z"/>
    <path class="cls-2" d="M365.33,287.7c.5,0,.8.4.9.8.7,5.2,1.1,10.3,1.1,15.4,0,.5-2.3,1.5-3.5,1.5-4.7.2-9.3,0-14,.2-.8,0-1.5.4-2.2.8s-.6,1.2,0,1.6c.8.6,1.6,1.1,2.5,1.1,5,.2,10,0,15,.2,1.2,0,3.3,1.8,3.3,2.9.3,4.8.2,9.7.2,15.3,0,.5-.4.9-.9.9h-6.2c-12.2,0-24.3,0-36.5-.1-1.4,0-4.1-1.6-4.1-2.5-.2-19.8-.2-39.6-.2-59.8,0-.5.4-.9.9-.9h45.6c.5,0,.9.4.9.9v17c0,.5-.4.9-.9.9h-16.9c-.9,0-1.7.5-2.5,1s-.6,1.2,0,1.6,1.6.9,2.5,1c4.9.2,9.8.1,15.1.2h-.1Z"/>
    <path class="cls-2" d="M252.73,264.61h46.9c.5,0,.9.4.9.9,0,6,.1,11.5-.1,17,0,1.4-1.4,2.9-2.4,4.1-5.5,6-11.1,12-16.7,17.9-.8.8-1.5,1.7-2.6,3s0,1.5.7,1.5h19.9c.5,0,.9.4.9.9v17.2c0,.5-.4.9-.9.9h-51.7c-.5,0-.9-.4-.9-.9,0-5.7-.1-11.4.1-17,0-1.3,1.3-2.6,2.3-3.7,5.5-6,11.1-12,16.7-17.9.8-.9,1.6-1.8,2.7-3.2s0-1.5-.7-1.5h-20c-.5,0-.9-.4-.9-.9v-17.5c0-.5.4-.9.9-.9h5l-.1.1Z"/>
  </g>
  <path class="cls-1" d="M567.43,693.2c0,2.4.2,4.5-.1,6.4-.2,1-1.3,1.8-2,2.7-.6-1-1.7-1.9-1.8-2.9-.3-2.8-.3-5.6,0-8.4.1-1.3,1.2-2.6,1.8-3.9.7,1.2,1.5,2.4,2.1,3.7.2.6,0,1.3,0,2.4Z"/>
</svg>