<?xml version="1.0" encoding="UTF-8"?>
<svg id="Layer_1" data-name="Layer 1" xmlns="http://www.w3.org/2000/svg" xmlns:xlink="http://www.w3.org/1999/xlink" viewBox="0 0 1014.33 57.35">
  <defs>
    <style>
      .cls-1 {
        fill: #3f3f3f;
      }

      .cls-2 {
        fill: #010101;
      }

      .cls-3 {
        fill-rule: evenodd;
      }

      .cls-3, .cls-4 {
        fill: #fff;
      }

      .cls-5 {
        fill: #36aadc;
      }

      .cls-6 {
        fill: #8992bf;
      }

      .cls-7 {
        fill: url(#radial-gradient-2);
      }

      .cls-8 {
        fill: url(#radial-gradient);
      }

      .cls-9 {
        fill: #47b8e9;
      }

      .cls-10 {
        fill: #ffcb2a;
      }

      .cls-11 {
        fill: #cb74af;
      }

      .cls-12 {
        fill: #1573b8;
      }

      .cls-13 {
        fill: #c3a3cd;
      }

      .cls-14 {
        fill: #301111;
      }

      .cls-15 {
        fill: #48ba7f;
      }

      .cls-16, .cls-17 {
        fill: #000094;
      }

      .cls-17 {
        stroke: #fff;
      }

      .cls-18 {
        fill: #8162aa;
      }

      .cls-19 {
        fill: #f37264;
      }

      .cls-20 {
        fill: #bb82b9;
      }

      .cls-21 {
        fill: #460437;
      }

      .cls-22 {
        fill: #131124;
      }

      .cls-23 {
        fill: #f05023;
      }

      .cls-24 {
        fill: #34c5ee;
      }

      .cls-25 {
        fill: #f89a1c;
      }
    </style>
    <radialGradient id="radial-gradient" cx="204.21" cy="439.66" fx="204.21" fy="439.66" r="1" gradientTransform="translate(-7584.58 16421.66) scale(39.54 -37.31)" gradientUnits="userSpaceOnUse">
      <stop offset="0" stop-color="#453055" stop-opacity=".98"/>
      <stop offset="1" stop-color="#180f2b"/>
    </radialGradient>
    <radialGradient id="radial-gradient-2" cx="204.03" cy="439.66" fx="204.03" fy="439.66" r="1" gradientTransform="translate(-7400.61 16421.66) scale(38.22 -37.31)" gradientUnits="userSpaceOnUse">
      <stop offset="0" stop-color="#4c2e4f" stop-opacity=".98"/>
      <stop offset="1" stop-color="#1b1024"/>
    </radialGradient>
  </defs>
  <path class="cls-12" d="M671.56,50.87L667.5.15h48.7l-4.06,50.73-20.29,6.09-20.29-6.09h0Z"/>
  <path class="cls-5" d="M712.14,4.2h-20.29v49.71l16.23-5.07,4.06-44.64Z"/>
  <path class="cls-4" d="M698.95,29.57h-20.29l-1.01-7.1,16.23-5.07h-16.23l-1.01-6.09h31.45l-1.01,7.1-13.19,5.07h12.17l-2.03,19.28-12.17,4.06-12.17-4.06-1.01-10.15h6.09l1.01,5.07,6.09,2.03,6.09-2.03,1.01-8.12h-.02Z"/>
  <path class="cls-10" d="M623.76,1.15h-51.26v53.99h51.26V1.15Z"/>
  <path class="cls-1" d="M603.62,46.06l3.77-2.63c.3.98,2.17,3.3,4.53,3.3s3.46-1.36,3.46-2.26c0-2.46-2.42-3.33-3.58-3.74-.19-.07-.34-.12-.45-.17-.05-.03-.14-.06-.24-.1-1.29-.52-6.05-2.44-6.05-7.99,0-6.12,5.6-6.82,6.87-6.82.83,0,4.82.11,6.8,4.04l-3.66,2.69c-.8-1.71-2.14-2.28-2.96-2.28-2.03,0-2.45,1.57-2.45,2.28,0,2,2.2,2.9,4.06,3.65.49.2.95.39,1.34.58,2.03,1.01,5.01,2.66,5.01,7.86,0,2.6-2.07,6.82-7.29,6.82-7.01,0-8.87-4.44-9.18-5.23h.02Z"/>
  <path class="cls-1" d="M585.31,46.58l3.93-2.63c.31.98,1.51,2.78,3.24,2.78s2.63-1.88,2.63-2.78v-17.73h4.84v17.73c.08,2.45-1.21,7.34-6.89,7.34-5.22,0-7.4-3.27-7.75-4.71Z"/>
  <path class="cls-8" d="M472.93,3.52h53.48v50.7h-53.48V3.52Z"/>
  <path class="cls-13" d="M472.93,3.52h53.48v50.7h-53.48V3.52ZM470.5,56.59h58.35V1.15h-58.35v55.44ZM511.78,27.88c1.24,0,1.68,0,1.8-.05,0-.17.05-.28.05-.4,0-1.28-.63-3.65-3.16-3.65-2.33,0-3.33,1.99-3.57,4.1h4.89-.01ZM506.84,31.12c.05,3.2,1.6,5.35,5.3,5.35,1.43,0,2.67-.19,3.96-.73.17-.07.29-.05.29.17v2.96c0,.24-.07.36-.24.47-1.29.62-2.89.9-4.89.9-6.42,0-8.82-4.62-8.82-9.76,0-5.59,2.97-10.16,8.19-10.16s7.15,4.34,7.15,7.87c0,1.14-.07,2.06-.19,2.51-.05.19-.12.26-.32.31-.49.07-1.92.17-4.06.17h-6.37v-.05h0ZM493.81,28.71c-.68-2.63-2.33-8.36-2.94-11.14h-.05c-.51,2.77-1.85,7.46-2.84,11.14h5.83ZM486.98,32.54l-1.92,7.08c-.05.19-.12.26-.36.26h-3.57c-.24,0-.29-.07-.24-.36l6.9-23.53c.12-.43.19-.76.24-1.94,0-.17.07-.24.19-.24h5.11c.17,0,.24.05.29.24l7.73,25.52c.05.19,0,.31-.19.31h-4.01c-.19,0-.32-.07-.36-.24l-1.99-7.11h-7.82Z"/>
  <path class="cls-21" d="M84.5,20.71c0-7.2,0-10.8,1.4-13.54,1.23-2.42,3.2-4.38,5.62-5.62,2.75-1.4,6.35-1.4,13.54-1.4h15.69c7.2,0,10.8,0,13.54,1.4,2.42,1.23,4.38,3.2,5.62,5.62,1.4,2.75,1.4,6.35,1.4,13.54v15.69c0,7.2,0,10.8-1.4,13.54-1.23,2.42-3.2,4.38-5.62,5.62-2.75,1.4-6.35,1.4-13.54,1.4h-15.69c-7.2,0-10.8,0-13.54-1.4-2.42-1.23-4.38-3.2-5.62-5.62-1.4-2.75-1.4-6.35-1.4-13.54v-15.69Z"/>
  <path class="cls-11" d="M114.22,16.85l-7.09,12,7.58,12.74c.16.29,0,.35-.23.35h-5.41c-.38,0-.65,0-.8-.27-.51-1.02-1.02-2.03-1.52-3.03-.51-1-1.05-2.03-1.62-3.07s-1.14-2.1-1.7-3.17c-.51,1.04-1.07,2.08-1.62,3.13-.55,1.04-1.09,2.08-1.62,3.11-.53,1.03-1.08,2.05-1.64,3.07-.1.23-.28.26-.53.26h-5.22c-.21,0-.23-.15-.11-.34l7.36-12.39-7.17-12.43c-.13-.18-.02-.37.19-.35h5.37c.23-.01.44.07.57.27.46,1.04.97,2.09,1.52,3.13.56,1.04,1.12,2.07,1.7,3.09.57,1.02,1.14,2.05,1.62,3.09.51-1.07,1.02-2.11,1.54-3.13.52-1.02,1.05-2.04,1.6-3.07.55-1.03,1.07-2.05,1.58-3.07.07-.22.23-.34.46-.31h4.99c.19,0,.27.26.19.39h.01Z"/>
  <path class="cls-11" d="M125.16,42.46c-3.36.05-6.88-1.33-8.65-4.4-.86-1.47-1.3-3.32-1.3-5.53-.01-1.79.43-3.56,1.3-5.12,2.23-3.98,6.71-5.47,10.98-5.08v-7.7c0-.18.08-.27.23-.27h4.8c.13-.02.25.1.23.23v23.1c0,.95.09,1.9.15,2.85,0,.16-.08.32-.23.39-2.37,1.01-4.94,1.51-7.51,1.52h0ZM127.48,37.61v-10.67c-3.48-.97-6.86,1.68-6.86,5.36-.08,3.8,3.19,6.42,6.86,5.32h0Z"/>
  <path class="cls-14" d="M185.5,20.71c0-7.2,0-10.8,1.4-13.54,1.23-2.42,3.2-4.38,5.62-5.62,2.75-1.4,6.35-1.4,13.54-1.4h15.69c7.2,0,10.8,0,13.54,1.4,2.42,1.23,4.38,3.2,5.62,5.62,1.4,2.75,1.4,6.35,1.4,13.54v15.69c0,7.2,0,10.8-1.4,13.54-1.23,2.42-3.2,4.38-5.62,5.62-2.75,1.4-6.35,1.4-13.54,1.4h-15.69c-7.2,0-10.8,0-13.54-1.4-2.42-1.23-4.38-3.2-5.62-5.62-1.4-2.75-1.4-6.35-1.4-13.54v-15.69Z"/>
  <path class="cls-25" d="M213.03,35.86h-8.8l-1.79,5.71c-.05.21-.24.36-.46.35h-4.46c-.25,0-.34-.14-.27-.43l7.62-22.52c.08-.23.15-.5.23-.8.1-.52.15-1.05.15-1.58-.02-.16.12-.3.27-.27h6.06c.18,0,.28.07.3.2l8.65,25.02c.08.26,0,.39-.23.39h-4.95c-.17.02-.34-.1-.38-.27l-1.94-5.79h0ZM205.6,30.93h6.02c-.99-3.38-2.11-6.72-3.01-10.12-.98,3.41-2.04,6.81-3.01,10.12Z"/>
  <path class="cls-25" d="M225.68,20.45c-.39.02-.78-.05-1.14-.2-.36-.15-.69-.37-.96-.66-.27-.3-.48-.65-.62-1.03-.14-.38-.2-.79-.18-1.2,0-.4.06-.8.2-1.18.15-.37.37-.71.65-.99.28-.28.61-.49.98-.64.36-.14.75-.21,1.14-.2.91,0,1.63.28,2.15.84.26.29.47.63.6,1,.13.37.2.77.18,1.16.02.41-.05.82-.19,1.2s-.36.73-.63,1.03c-.29.29-.63.52-1.01.67-.38.15-.78.21-1.18.19h0ZM223.05,41.52v-18.68c0-.23.1-.35.3-.35h4.69c.2,0,.3.12.3.35v18.68c0,.26-.1.39-.3.39h-4.65c-.23,0-.34-.13-.34-.39Z"/>
  <path class="cls-22" d="M279.87,3.52h52.08v50.66h-52.08V3.52Z"/>
  <path class="cls-24" d="M279.87,3.52h52.08v50.66h-52.08V3.52ZM277.5,56.54h56.81V1.15h-56.81v55.39ZM315.8,23.88c-1.87,0-2.51.95-2.51,1.73,0,.85.43,1.44,2.94,2.75,3.72,1.8,4.87,3.53,4.87,6.06,0,3.79-2.89,5.82-6.79,5.82-1.68.06-3.34-.29-4.85-1.01-.17-.07-.19-.19-.19-.38v-3.48c0-.24.12-.31.28-.19,1.42.91,3.07,1.4,4.76,1.4,1.87,0,2.65-.78,2.65-1.85,0-.85-.54-1.61-2.94-2.84-3.36-1.61-4.76-3.25-4.76-5.97,0-3.05,2.39-5.59,6.53-5.59,1.44-.06,2.88.16,4.24.66.16.1.25.28.24.47v3.25c0,.19-.12.31-.36.24-1.25-.72-2.67-1.09-4.12-1.07h0ZM295.44,26.69c.54.05.97.05,1.92.05,2.77,0,5.37-.97,5.37-4.73,0-3.01-1.87-4.52-5.02-4.52-.95,0-1.85.05-2.27.07v9.14h0ZM291.23,14.11c0-.17.33-.28.52-.28,1.52-.07,3.76-.12,6.11-.12,6.56,0,9.11,3.6,9.11,8.19,0,6.01-4.36,8.59-9.7,8.59-.9,0-1.21-.05-1.85-.05v9.09c0,.19-.07.28-.28.28h-3.62c-.19,0-.28-.07-.28-.28V14.12h0Z"/>
  <path class="cls-6" d="M816.67,33.79c2.97-15.41-7.12-30.3-22.52-33.27-15.41-2.97-30.3,7.12-33.27,22.53-2.97,15.41,7.12,30.3,22.52,33.27,15.41,2.97,30.3-7.12,33.27-22.53Z"/>
  <path class="cls-4" d="M785.6,16.24h3.41l-.96,5.12h3.06c1.68.04,2.93.41,3.75,1.13.84.71,1.09,2.07.74,4.08l-1.66,8.93h-3.46l1.58-8.53c.16-.89.12-1.53-.15-1.9-.26-.38-.83-.56-1.7-.56l-2.74-.03-2.03,11.02h-3.41l3.56-19.25h.01Z"/>
  <path class="cls-3" d="M769.98,21.36h6.62c1.94.02,3.35.63,4.22,1.82.87,1.2,1.16,2.83.86,4.91-.12.95-.37,1.88-.77,2.79-.38.91-.91,1.73-1.58,2.47-.82.93-1.7,1.52-2.64,1.77s-1.91.38-2.91.38h-2.96l-.94,5.09h-3.43l3.53-19.23ZM771.39,32.47l1.48-8.02h.5c.18,0,.37,0,.57-.03,1.32-.02,2.41.12,3.29.4.89.29,1.19,1.37.89,3.24-.36,2.23-1.07,3.54-2.12,3.92-1.05.36-2.37.53-3.95.51h-.35c-.1,0-.2,0-.3-.03h0Z"/>
  <path class="cls-3" d="M805.89,21.36h-6.62l-3.53,19.23h3.43l.94-5.09h2.96c1,0,1.98-.12,2.91-.38.94-.25,1.82-.84,2.64-1.77.68-.73,1.2-1.56,1.58-2.47.4-.91.65-1.84.77-2.79.3-2.07,0-3.71-.86-4.91-.87-1.2-2.28-1.81-4.22-1.82ZM802.15,24.45l-1.48,8.02c.1.02.2.03.3.03h.35c1.58.02,2.9-.15,3.95-.51,1.05-.38,1.76-1.68,2.12-3.92.3-1.88,0-2.96-.89-3.24-.87-.29-1.97-.42-3.29-.4-.2.02-.39.03-.57.03h-.5,0Z"/>
  <path class="cls-7" d="M380.85,3.52h51.7v50.7h-51.7V3.52Z"/>
  <path class="cls-20" d="M380.85,3.52h51.7v50.7h-51.7V3.52ZM378.5,56.59h56.4V1.15h-56.4v55.44ZM412.34,24.56c0-.28,0-.97-.12-2.3,0-.19.02-.24.19-.31,1.43-.59,4.79-1.63,8.6-1.63.19,0,.28.05.28.24v3.44c0,.19-.07.24-.26.24-1.48-.07-3.62.12-4.44.47v14.93c0,.19-.07.28-.28.28h-3.69c-.19,0-.28-.07-.28-.28v-15.07h0ZM397.3,26.72c.54.05.96.05,1.9.05,2.75,0,5.33-.97,5.33-4.74,0-3.01-1.83-4.53-4.98-4.53-.94,0-1.83.05-2.26.07v9.15h0ZM393.14,14.13c0-.17.05-.28.23-.28,1.5-.07,3.71-.12,6.04-.12,6.51,0,9.35,3.6,9.35,8.22,0,6.02-4.32,8.6-9.64,8.6-.89,0-1.2-.05-1.83-.05v9.1c0,.19-.07.28-.28.28h-3.62c-.19,0-.28-.07-.28-.28V14.13h.03Z"/>
  <path class="cls-2" d="M910.32,32.22h.27c1.69,0,3.29.39,4.71,1.1l-.06-.03c1.29.63,2.36,1.56,3.13,2.71l.02.03c.61.88.97,1.98.97,3.16v.25c-.06,1.16-.6,2.2-1.42,2.93-.45.44-.99.79-1.59,1.01h-.03c-.34.08-.52.03-.56-.14-.04-.17.12-.36.46-.56.92-.56,1.58-1.45,1.82-2.51v-.03c.01-.09.02-.18.02-.29,0-.63-.15-1.23-.42-1.76v.02c-.43-.92-1.09-1.67-1.9-2.22h-.02c-1.21-.79-2.66-1.3-4.23-1.43h-.03c-.53-.08-1.14-.13-1.77-.13-1.63,0-3.18.31-4.61.86l.09-.03c.29.69.48,1.49.51,2.32-.03,1.72-.95,3.22-2.32,4.05h-.02c-.63.46-1.35.85-2.11,1.15l-.07.02c-.46.23-1.01.36-1.59.36h-.2.01c-1.28-.27-1.59-1.39-.91-3.35.29-.85.71-1.59,1.23-2.25h-.01c.67-.86,1.4-1.62,2.21-2.3l.02-.02-.2-.3c-.37-.63-.71-1.37-.99-2.14l-.03-.09c-.2-.68-.37-1.32-.51-1.93l-.1-.71-1.01,1.93c-.88,1.62-1.72,3.04-2.54,4.26l-.3.51c.34.83.59,1.79.71,2.79v.05c.01.1.02.21.02.32,0,1.54-.76,2.9-1.92,3.73h-.01c-.56.35-1.22.71-1.91,1.02l-.12.05c-.72.31-1.55.51-2.42.56h-.25c-.51,0-.99-.12-1.42-.32h.02c-.26-.21-.42-.54-.42-.9,0-.18.04-.36.12-.52.81-1.13,1.61-2.12,2.46-3.07l-.03.03,2.23-2.84-.4-.91c-.32-.6-.64-1.3-.88-2.03l-.03-.1c-.2-.68-.37-1.32-.51-1.93l-.1-.71-1.01,2.43c-.81,1.89-1.55,3.51-2.23,4.87-1.01,2.03-1.86,3.58-2.54,4.67l-.2.3c-.81,1.28-1.59,1.93-2.33,1.93s-1.25-.47-1.52-1.42c-.19-.7-.31-1.5-.31-2.33v-.22l.2-1.41v.1c-.54,1.28-1.08,2.47-1.62,3.55-.36.7-.73,1.3-1.14,1.86l.03-.04c-.42.44-1.01.71-1.66.71h-.16c-.51,0-.98-.19-1.33-.51-.71-.72-1.23-1.63-1.51-2.64v-.04c-.34-.92-.53-1.99-.53-3.1,0-.14,0-.29.01-.43v.02c.16-1.62.48-3.09.96-4.5l-.04.14-3.65,2.13v.1c.53,1.1.84,2.39.84,3.75,0,.25-.01.5-.03.74v-.03c-.11,2.09-.77,4-1.85,5.62l.03-.04c-1.13,1.79-2.76,3.18-4.7,3.98l-.07.02c-1.09.49-2.36.78-3.7.78-.85,0-1.67-.11-2.45-.33h.06c-.65-.2-1.17-.63-1.51-1.19-.47-.7-.77-1.54-.82-2.44-.02-.22-.03-.45-.03-.7,0-1.04.24-2.03.66-2.91l-.02.04c1.16-1.99,2.78-3.6,4.7-4.73l.06-.03c1.36-.94,2.93-1.86,4.56-2.66l.22-.1.51-.3c-.61-.47-1.72-1.29-3.35-2.43-2.17-1.45-4.05-2.92-5.83-4.51l.05.04c-1.72-1.48-2.97-3.46-3.53-5.71l-.02-.08c-.05-.31-.08-.67-.08-1.04,0-1.14.29-2.22.81-3.16l-.02.03c1.14-2.44,2.71-4.5,4.64-6.16l.02-.02c2.09-1.97,4.46-3.69,7.02-5.08l.18-.09c2.29-1.32,4.98-2.56,7.77-3.54l.34-.11c2.6-.95,5.59-1.51,8.72-1.52h.48c2.52,0,4.9.58,7.02,1.62l-.09-.04c1.83.83,3.19,2.4,3.74,4.31v.05c.18.65.28,1.4.28,2.18,0,1.28-.27,2.5-.74,3.61l.02-.06c-.87,2.1-2.1,3.9-3.65,5.37-1.56,1.55-3.44,2.79-5.51,3.62l-.11.04c-2.18.94-4.71,1.52-7.37,1.62h-.04c-.39.05-.84.07-1.3.07-1.2,0-2.36-.17-3.46-.5l.09.02c-.98-.31-1.83-.8-2.54-1.43-.5-.4-.91-.91-1.21-1.48v-.03c-.22-.54-.23-.86-.06-.96.17-.1.29-.12.36-.05l.51.51c.57.53,1.24.94,1.99,1.2h.04c1.03.37,2.21.58,3.44.58.4,0,.79-.02,1.17-.06h-.05c3.28-.38,6.24-1.5,8.8-3.19l-.08.05c2.16-1.28,3.91-3.05,5.14-5.15l.04-.07c.61-.9.98-2,.98-3.2,0-.73-.14-1.43-.39-2.08v.04c-.74-1.2-1.97-2.04-3.4-2.28h-.03c-1.11-.28-2.39-.44-3.7-.44-1.06,0-2.09.1-3.09.3l.1-.02c-3.42.62-6.48,1.67-9.31,3.13l.18-.09c-8.32,4.19-12.61,8.49-12.88,12.88v.1c0,1.77.7,3.38,1.83,4.57,1.29,1.43,2.72,2.7,4.28,3.8l.08.05c1.42,1.06,2.68,2.16,3.85,3.35l.2.21,6.49-3.55c.74-1.07,1.63-1.98,2.65-2.71l.03-.02c.81-.68,1.84-1.13,2.97-1.22h.16c.76,0,1.41.46,1.69,1.11.21.49.34,1.05.34,1.63,0,.18-.01.36-.03.53v-.02l-.19,1,.3-.2c.21-.16.48-.26.76-.26.18,0,.36.04.51.11.39.1.67.45.67.86,0,.07,0,.14-.02.21l-.3,1.11c-.61,2.43-1.01,4.19-1.22,5.27-.1.35-.16.75-.16,1.17v.26c.03.39.08.6.15.6s.2-.2.4-.61l.3-.71c.07,0,.07.03,0,.1l1.12-2.33c2.64-5.81,4.06-9.06,4.26-9.74l.61-1.93c.07-.14.34-.27.81-.4.48-.13,1.03-.2,1.6-.2h.14c.95,0,1.42.24,1.42.71l-.1.51c-.23.62-.45,1.41-.63,2.21l-.02.13c-.04.26-.06.56-.06.87,0,.41.04.81.12,1.2v-.04l.1.4c.21.85.52,1.59.93,2.27l-.02-.03c.81-1.35,1.59-2.74,2.33-4.16.59-.98,1.14-2.12,1.58-3.31l.05-.14c.15-.76.33-1.41.54-2.04l-.03.11c.07-.2.36-.36.87-.46.48-.1,1.04-.15,1.6-.15h.07c.95,0,1.45.24,1.52.71l-.2.4c-.24.68-.45,1.5-.59,2.34v.09c-.03.2-.04.42-.04.66,0,.48.05.96.14,1.42v-.05.4c.23.88.58,1.66,1.03,2.37l-.02-.03.3.71c1.69-.83,3.69-1.32,5.79-1.32h.08l-.07.08ZM866.82,46.94c1.41-1.46,2.28-3.45,2.28-5.64,0-.85-.13-1.66-.37-2.43l.02.06-1.62,1.01c-1.66.94-3.09,2-4.38,3.19h.02c-.98.89-1.71,2.06-2.07,3.38v.05c-.32,1.25-.16,2.06.44,2.43.37.17.81.27,1.26.27.5,0,.97-.12,1.39-.33h-.02c1.21-.43,2.23-1.13,3.04-2.02h.01v.03ZM880.41,37.6c.34-.88.71-1.93,1.12-3.15.54-1.62.73-2.57.56-2.84-.17-.27-.49-.3-.96-.1-.56.27-1.04.65-1.41,1.11-.42.54-.82,1.14-1.18,1.77l-.04.07c-.41.67-.76,1.44-1,2.26l-.02.07c-.39,1.06-.62,2.29-.62,3.57,0,.17,0,.34.01.51v-.02c.07,1.35.28,2.08.65,2.18.37.1.79-.39,1.27-1.47.46-.84.88-1.81,1.19-2.83l.03-.11c.2-.48.34-.82.41-1.02h-.01ZM891.66,42.97c1.41-.63,2.4-1.96,2.53-3.53v-.12l-1.12,1.42-2.03,2.23s-.05.06-.05.1.02.08.05.1c.06.07.27,0,.61-.2h0ZM900.39,41.05c1.53-.44,2.64-1.83,2.64-3.47v-.08c-.02-.4-.09-.78-.21-1.14v.03c-.78.7-1.43,1.54-1.9,2.49l-.02.05c-.61,1.22-.78,1.92-.51,2.13h0Z"/>
  <path class="cls-15" d="M10.13,56.31c5.32,0,9.63-4.12,9.63-9.19v-9.19h-9.63c-5.32,0-9.63,4.12-9.63,9.19s4.31,9.19,9.63,9.19Z"/>
  <path class="cls-18" d="M.5,28.73c0-5.08,4.31-9.19,9.63-9.19h9.63v18.39h-9.63c-5.32,0-9.63-4.12-9.63-9.19h0Z"/>
  <path class="cls-23" d="M.5,10.34C.5,5.27,4.81,1.15,10.13,1.15h9.63v18.39h-9.63C4.81,19.54.5,15.42.5,10.34Z"/>
  <path class="cls-19" d="M19.76,1.15h9.63c5.32,0,9.63,4.12,9.63,9.19s-4.31,9.19-9.63,9.19h-9.63V1.15Z"/>
  <path class="cls-9" d="M39.02,28.73c0,5.08-4.31,9.19-9.63,9.19s-9.63-4.12-9.63-9.19,4.31-9.19,9.63-9.19,9.63,4.12,9.63,9.19Z"/>
  <g>
    <path class="cls-16" d="M671.56,50.87L667.5.15h48.7l-4.06,50.73-20.29,6.09-20.29-6.09h0Z"/>
    <path class="cls-16" d="M712.14,4.2h-20.29v49.71l16.23-5.07s4.06-44.64,4.06-44.64Z"/>
    <path class="cls-4" d="M698.95,29.57h-20.29l-1.01-7.1,16.23-5.07h-16.23l-1.01-6.09h31.45l-1.01,7.1-13.19,5.07h12.17l-2.03,19.28-12.17,4.06-12.17-4.06-1.01-10.15h6.09l1.01,5.07,6.09,2.03,6.09-2.03,1.01-8.12h-.02Z"/>
  </g>
  <g>
    <rect class="cls-16" x="572.5" y=".88" width="51.26" height="53.99"/>
    <path class="cls-4" d="M603.62,45.79l3.77-2.63c.3.98,2.17,3.3,4.53,3.3s3.46-1.36,3.46-2.26c0-2.46-2.42-3.33-3.58-3.74-.19-.07-.34-.12-.45-.17-.05-.03-.14-.06-.24-.1-1.29-.52-6.05-2.44-6.05-7.99,0-6.12,5.6-6.82,6.87-6.82.83,0,4.82.11,6.8,4.04l-3.66,2.69c-.8-1.71-2.14-2.28-2.96-2.28-2.03,0-2.45,1.57-2.45,2.28,0,2,2.2,2.9,4.06,3.65.49.2.95.39,1.34.58,2.03,1.01,5.01,2.66,5.01,7.86,0,2.6-2.07,6.82-7.29,6.82-7.01,0-8.87-4.44-9.18-5.23h.02Z"/>
    <path class="cls-4" d="M585.31,46.31l3.93-2.63c.31.98,1.51,2.78,3.24,2.78s2.63-1.88,2.63-2.78v-17.73h4.84v17.73c.08,2.45-1.21,7.34-6.89,7.34-5.22,0-7.4-3.27-7.75-4.71h0Z"/>
  </g>
  <g>
    <path class="cls-16" d="M472.93,3.52h53.48v50.7h-53.48V3.52Z"/>
    <path class="cls-4" d="M472.93,3.52h53.48v50.7h-53.48V3.52ZM470.5,56.59h58.35V1.15h-58.35s0,55.44,0,55.44ZM511.78,27.88c1.24,0,1.68,0,1.8-.05,0-.17.05-.28.05-.4,0-1.28-.63-3.65-3.16-3.65-2.33,0-3.33,1.99-3.57,4.1h4.89-.01ZM506.84,31.12c.05,3.2,1.6,5.35,5.3,5.35,1.43,0,2.67-.19,3.96-.73.17-.07.29-.05.29.17v2.96c0,.24-.07.36-.24.47-1.29.62-2.89.9-4.89.9-6.42,0-8.82-4.62-8.82-9.76,0-5.59,2.97-10.16,8.19-10.16s7.15,4.34,7.15,7.87c0,1.14-.07,2.06-.19,2.51-.05.19-.12.26-.32.31-.49.07-1.92.17-4.06.17h-6.37v-.05h0ZM493.81,28.71c-.68-2.63-2.33-8.36-2.94-11.14h-.05c-.51,2.77-1.85,7.46-2.84,11.14h5.83ZM486.98,32.54l-1.92,7.08c-.05.19-.12.26-.36.26h-3.57c-.24,0-.29-.07-.24-.36l6.9-23.53c.12-.43.19-.76.24-1.94,0-.17.07-.24.19-.24h5.11c.17,0,.24.05.29.24l7.73,25.52c.05.19,0,.31-.19.31h-4.01c-.19,0-.32-.07-.36-.24l-1.99-7.11h-7.82Z"/>
  </g>
  <g>
    <path class="cls-16" d="M83.97,20.97c0-7.2,0-10.8,1.4-13.54,1.23-2.42,3.2-4.38,5.62-5.62,2.75-1.4,6.35-1.4,13.54-1.4h15.69c7.2,0,10.8,0,13.54,1.4,2.42,1.23,4.38,3.2,5.62,5.62,1.4,2.75,1.4,6.35,1.4,13.54v15.69c0,7.2,0,10.8-1.4,13.54-1.23,2.42-3.2,4.38-5.62,5.62-2.75,1.4-6.35,1.4-13.54,1.4h-15.69c-7.2,0-10.8,0-13.54-1.4-2.42-1.23-4.38-3.2-5.62-5.62-1.4-2.75-1.4-6.35-1.4-13.54v-15.69Z"/>
    <path class="cls-4" d="M113.69,17.11l-7.09,12,7.58,12.74c.16.29,0,.35-.23.35h-5.41c-.38,0-.65,0-.8-.27-.51-1.02-1.02-2.03-1.52-3.03-.51-1-1.05-2.03-1.62-3.07s-1.14-2.1-1.7-3.17c-.51,1.04-1.07,2.08-1.62,3.13-.55,1.04-1.09,2.08-1.62,3.11-.53,1.03-1.08,2.05-1.64,3.07-.1.23-.28.26-.53.26h-5.22c-.21,0-.23-.15-.11-.34l7.36-12.39-7.17-12.43c-.13-.18-.02-.37.19-.35h5.37c.23-.01.44.07.57.27.46,1.04.97,2.09,1.52,3.13.56,1.04,1.12,2.07,1.7,3.09.57,1.02,1.14,2.05,1.62,3.09.51-1.07,1.02-2.11,1.54-3.13s1.05-2.04,1.6-3.07c.55-1.03,1.07-2.05,1.58-3.07.07-.22.23-.34.46-.31h4.99c.19,0,.27.26.19.39,0,0,.01,0,.01,0Z"/>
    <path class="cls-4" d="M124.63,42.72c-3.36.05-6.88-1.33-8.65-4.4-.86-1.47-1.3-3.32-1.3-5.53-.01-1.79.43-3.56,1.3-5.12,2.23-3.98,6.71-5.47,10.98-5.08v-7.7c0-.18.08-.27.23-.27h4.8c.13-.02.25.1.23.23v23.1c0,.95.09,1.9.15,2.85,0,.16-.08.32-.23.39-2.37,1.01-4.94,1.51-7.51,1.52h0ZM126.95,37.87v-10.67c-3.48-.97-6.86,1.68-6.86,5.36-.08,3.8,3.19,6.42,6.86,5.32h0Z"/>
  </g>
  <g>
    <path class="cls-16" d="M185.2,21.1c0-7.2,0-10.8,1.4-13.54,1.23-2.42,3.2-4.38,5.62-5.62,2.75-1.4,6.35-1.4,13.54-1.4h15.69c7.2,0,10.8,0,13.54,1.4,2.42,1.23,4.38,3.2,5.62,5.62,1.4,2.75,1.4,6.35,1.4,13.54v15.69c0,7.2,0,10.8-1.4,13.54-1.23,2.42-3.2,4.38-5.62,5.62-2.75,1.4-6.35,1.4-13.54,1.4h-15.69c-7.2,0-10.8,0-13.54-1.4-2.42-1.23-4.38-3.2-5.62-5.62-1.4-2.75-1.4-6.35-1.4-13.54v-15.69Z"/>
    <path class="cls-4" d="M212.73,36.25h-8.8l-1.79,5.71c-.05.21-.24.36-.46.35h-4.46c-.25,0-.34-.14-.27-.43l7.62-22.52c.08-.23.15-.5.23-.8.1-.52.15-1.05.15-1.58-.02-.16.12-.3.27-.27h6.06c.18,0,.28.07.3.2l8.65,25.02c.08.26,0,.39-.23.39h-4.95c-.17.02-.34-.1-.38-.27l-1.94-5.79h0ZM205.3,31.32h6.02c-.99-3.38-2.11-6.72-3.01-10.12-.98,3.41-2.04,6.81-3.01,10.12h0Z"/>
    <path class="cls-4" d="M225.38,20.84c-.39.02-.78-.05-1.14-.2-.36-.15-.69-.37-.96-.66-.27-.3-.48-.65-.62-1.03-.14-.38-.2-.79-.18-1.2,0-.4.06-.8.2-1.18.15-.37.37-.71.65-.99s.61-.49.98-.64c.36-.14.75-.21,1.14-.2.91,0,1.63.28,2.15.84.26.29.47.63.6,1,.13.37.2.77.18,1.16.02.41-.05.82-.19,1.2-.14.38-.36.73-.63,1.03-.29.29-.63.52-1.01.67-.38.15-.78.21-1.18.19h.01ZM222.75,41.91v-18.68c0-.23.1-.35.3-.35h4.69c.2,0,.3.12.3.35v18.68c0,.26-.1.39-.3.39h-4.65c-.23,0-.34-.13-.34-.39h0Z"/>
  </g>
  <g>
    <path class="cls-16" d="M279.87,3.52h52.08v50.66h-52.08V3.52h0Z"/>
    <path class="cls-4" d="M279.87,3.52h52.08v50.66h-52.08V3.52h0ZM277.5,56.54h56.81V1.15h-56.81v55.39ZM315.8,23.88c-1.87,0-2.51.95-2.51,1.73,0,.85.43,1.44,2.94,2.75,3.72,1.8,4.87,3.53,4.87,6.06,0,3.79-2.89,5.82-6.79,5.82-1.68.06-3.34-.29-4.85-1.01-.17-.07-.19-.19-.19-.38v-3.48c0-.24.12-.31.28-.19,1.42.91,3.07,1.4,4.76,1.4,1.87,0,2.65-.78,2.65-1.85,0-.85-.54-1.61-2.94-2.84-3.36-1.61-4.76-3.25-4.76-5.97,0-3.05,2.39-5.59,6.53-5.59,1.44-.06,2.88.16,4.24.66.16.1.25.28.24.47v3.25c0,.19-.12.31-.36.24-1.25-.72-2.67-1.09-4.12-1.07h0ZM295.44,26.69c.54.05.97.05,1.92.05,2.77,0,5.37-.97,5.37-4.73,0-3.01-1.87-4.52-5.02-4.52-.95,0-1.85.05-2.27.07v9.14h0ZM291.23,14.11c0-.17.33-.28.52-.28,1.52-.07,3.76-.12,6.11-.12,6.56,0,9.11,3.6,9.11,8.19,0,6.01-4.36,8.59-9.7,8.59-.9,0-1.21-.05-1.85-.05v9.09c0,.19-.07.28-.28.28h-3.62c-.19,0-.28-.07-.28-.28V14.12h-.01Z"/>
  </g>
  <g>
    <circle class="cls-16" cx="788.77" cy="28.42" r="28.41"/>
    <path class="cls-4" d="M785.6,16.24h3.41l-.96,5.12h3.06c1.68.04,2.93.41,3.75,1.13.84.71,1.09,2.07.74,4.08l-1.66,8.93h-3.46l1.58-8.53c.16-.89.12-1.53-.15-1.9-.26-.38-.83-.56-1.7-.56l-2.74-.03-2.03,11.02h-3.41l3.56-19.25h.01,0Z"/>
    <path class="cls-3" d="M769.98,21.36h6.62c1.94.02,3.35.63,4.22,1.82.87,1.2,1.16,2.83.86,4.91-.12.95-.37,1.88-.77,2.79-.38.91-.91,1.73-1.58,2.47-.82.93-1.7,1.52-2.64,1.77s-1.91.38-2.91.38h-2.96l-.94,5.09h-3.43l3.53-19.23h0ZM771.39,32.47l1.48-8.02h.5c.18,0,.37,0,.57-.03,1.32-.02,2.41.12,3.29.4.89.29,1.19,1.37.89,3.24-.36,2.23-1.07,3.54-2.12,3.92-1.05.36-2.37.53-3.95.51h-.35c-.1,0-.2,0-.3-.03h-.01,0Z"/>
    <path class="cls-3" d="M805.89,21.36h-6.62l-3.53,19.23h3.43l.94-5.09h2.96c1,0,1.98-.12,2.91-.38.94-.25,1.82-.84,2.64-1.77.68-.73,1.2-1.56,1.58-2.47.4-.91.65-1.84.77-2.79.3-2.07,0-3.71-.86-4.91-.87-1.2-2.28-1.81-4.22-1.82h0ZM802.15,24.45l-1.48,8.02c.1.02.2.03.3.03h.35c1.58.02,2.9-.15,3.95-.51,1.05-.38,1.76-1.68,2.12-3.92.3-1.88,0-2.96-.89-3.24-.87-.29-1.97-.42-3.29-.4-.2.02-.39.03-.57.03h-.5.01Z"/>
  </g>
  <g>
    <path class="cls-16" d="M380.85,3.52h51.7v50.7h-51.7V3.52h0Z"/>
    <path class="cls-4" d="M380.85,3.52h51.7v50.7h-51.7V3.52h0ZM378.5,56.59h56.4V1.15h-56.4v55.44ZM412.34,24.56c0-.28,0-.97-.12-2.3,0-.19.02-.24.19-.31,1.43-.59,4.79-1.63,8.6-1.63.19,0,.28.05.28.24v3.44c0,.19-.07.24-.26.24-1.48-.07-3.62.12-4.44.47v14.93c0,.19-.07.28-.28.28h-3.69c-.19,0-.28-.07-.28-.28v-15.07h0ZM397.3,26.72c.54.05.96.05,1.9.05,2.75,0,5.33-.97,5.33-4.74,0-3.01-1.83-4.53-4.98-4.53-.94,0-1.83.05-2.26.07v9.15h.01ZM393.14,14.13c0-.17.05-.28.23-.28,1.5-.07,3.71-.12,6.04-.12,6.51,0,9.35,3.6,9.35,8.22,0,6.02-4.32,8.6-9.64,8.6-.89,0-1.2-.05-1.83-.05v9.1c0,.19-.07.28-.28.28h-3.62c-.19,0-.28-.07-.28-.28V14.13s.03,0,.03,0Z"/>
  </g>
  <path class="cls-16" d="M910.34,32.25h.27c1.69,0,3.29.39,4.71,1.1l-.06-.03c1.29.63,2.36,1.56,3.13,2.71l.02.03c.61.88.97,1.98.97,3.16v.25h0c-.06,1.16-.6,2.2-1.42,2.93h0c-.45.44-.99.79-1.59,1.01h-.03c-.34.08-.52.03-.56-.14s.12-.36.46-.56c.92-.56,1.58-1.45,1.82-2.51v-.03c0-.09.02-.18.02-.29,0-.63-.15-1.23-.42-1.76v.02c-.43-.92-1.09-1.67-1.9-2.22h-.02c-1.21-.79-2.66-1.3-4.23-1.43h-.03c-.53-.08-1.14-.13-1.77-.13-1.63,0-3.18.31-4.61.86l.09-.03c.29.69.48,1.49.51,2.32h0c-.03,1.72-.95,3.22-2.32,4.05h-.02c-.63.46-1.35.85-2.11,1.15l-.07.02c-.46.23-1.01.36-1.59.36h-.2.01c-1.28-.27-1.59-1.39-.91-3.35.29-.85.71-1.59,1.23-2.25h-.01c.67-.86,1.4-1.62,2.21-2.3l.02-.02-.2-.3c-.37-.63-.71-1.37-.99-2.14l-.03-.09c-.2-.68-.37-1.32-.51-1.93l-.1-.71-1.01,1.93c-.88,1.62-1.72,3.04-2.54,4.26l-.3.51c.34.83.59,1.79.71,2.79v.05c.01.1.02.21.02.32,0,1.54-.76,2.9-1.92,3.73h-.01c-.56.35-1.22.71-1.91,1.02l-.12.05c-.72.31-1.55.51-2.42.56h-.25c-.51,0-.99-.12-1.42-.32h.02c-.26-.21-.42-.54-.42-.9,0-.18.04-.36.12-.52h0c.81-1.13,1.61-2.12,2.46-3.07l-.03.03,2.23-2.84-.4-.91c-.32-.6-.64-1.3-.88-2.03l-.03-.1c-.2-.68-.37-1.32-.51-1.93l-.1-.71-1.01,2.43c-.81,1.89-1.55,3.51-2.23,4.87-1.01,2.03-1.86,3.58-2.54,4.67l-.2.3c-.81,1.28-1.59,1.93-2.33,1.93s-1.25-.47-1.52-1.42c-.19-.7-.31-1.5-.31-2.33v-.22h0l.2-1.41v.1c-.54,1.28-1.08,2.47-1.62,3.55-.36.7-.73,1.3-1.14,1.86l.03-.04c-.42.44-1.01.71-1.66.71h-.16c-.51,0-.98-.19-1.33-.51h0c-.71-.72-1.23-1.63-1.51-2.64v-.04c-.34-.92-.53-1.99-.53-3.1,0-.14,0-.29.01-.43v.02c.16-1.62.48-3.09.96-4.5l-.04.14-3.65,2.13v.1c.53,1.1.84,2.39.84,3.75,0,.25-.01.5-.03.74v-.03c-.11,2.09-.77,4-1.85,5.62l.03-.04c-1.13,1.79-2.76,3.18-4.7,3.98l-.07.02c-1.09.49-2.36.78-3.7.78-.85,0-1.67-.11-2.45-.33h.06c-.65-.2-1.17-.63-1.51-1.19h0c-.47-.7-.77-1.54-.82-2.44h0c-.02-.22-.03-.45-.03-.7,0-1.04.24-2.03.66-2.91l-.02.04c1.16-1.99,2.78-3.6,4.7-4.73l.06-.03c1.36-.94,2.93-1.86,4.56-2.66l.22-.1.51-.3c-.61-.47-1.72-1.29-3.35-2.43-2.17-1.45-4.05-2.92-5.83-4.51l.05.04c-1.72-1.48-2.97-3.46-3.53-5.71l-.02-.08c-.05-.31-.08-.67-.08-1.04,0-1.14.29-2.22.81-3.16l-.02.03c1.14-2.44,2.71-4.5,4.64-6.16l.02-.02c2.09-1.97,4.46-3.69,7.02-5.08l.18-.09c2.29-1.32,4.98-2.56,7.77-3.54l.34-.11c2.6-.95,5.59-1.51,8.72-1.52h.48c2.52,0,4.9.58,7.02,1.62l-.09-.04c1.83.83,3.19,2.4,3.74,4.31v.05c.18.65.28,1.4.28,2.18,0,1.28-.27,2.5-.74,3.61l.02-.06c-.87,2.1-2.1,3.9-3.65,5.37h0c-1.56,1.55-3.44,2.79-5.51,3.62l-.11.04c-2.18.94-4.71,1.52-7.37,1.62h-.04c-.39.05-.84.07-1.3.07-1.2,0-2.36-.17-3.46-.5l.09.02c-.98-.31-1.83-.8-2.54-1.43h0c-.5-.4-.91-.91-1.21-1.48v-.03c-.22-.54-.23-.86-.06-.96s.29-.12.36-.05l.51.51c.57.53,1.24.94,1.99,1.2h.04c1.03.37,2.21.58,3.44.58.4,0,.79-.02,1.17-.06h-.05c3.28-.38,6.24-1.5,8.8-3.19l-.08.05c2.16-1.28,3.91-3.05,5.14-5.15l.04-.07c.61-.9.98-2,.98-3.2,0-.73-.14-1.43-.39-2.08v.04c-.74-1.2-1.97-2.04-3.4-2.28h-.03c-1.11-.28-2.39-.44-3.7-.44-1.06,0-2.09.1-3.09.3l.1-.02c-3.42.62-6.48,1.67-9.31,3.13l.18-.09c-8.32,4.19-12.61,8.49-12.88,12.88v.1c0,1.77.7,3.38,1.83,4.57h0c1.29,1.43,2.72,2.7,4.28,3.8l.08.05c1.42,1.06,2.68,2.16,3.85,3.35h0l.2.21,6.49-3.55c.74-1.07,1.63-1.98,2.65-2.71l.03-.02c.81-.68,1.84-1.13,2.97-1.22h.16c.76,0,1.41.46,1.69,1.11h0c.21.49.34,1.05.34,1.63,0,.18-.01.36-.03.53v-.02l-.19,1,.3-.2c.21-.16.48-.26.76-.26.18,0,.36.04.51.11h0c.39.1.67.45.67.86,0,.07,0,.14-.02.21h0l-.3,1.11c-.61,2.43-1.01,4.19-1.22,5.27-.1.35-.16.75-.16,1.17v.26h0c.03.39.08.6.15.6s.2-.2.4-.61l.3-.71c.07,0,.07.03,0,.1l1.12-2.33c2.64-5.81,4.06-9.06,4.26-9.74l.61-1.93c.07-.14.34-.27.81-.4.48-.13,1.03-.2,1.6-.2h.14c.95,0,1.42.24,1.42.71l-.1.51c-.23.62-.45,1.41-.63,2.21l-.02.13c-.04.26-.06.56-.06.87,0,.41.04.81.12,1.2v-.04l.1.4c.21.85.52,1.59.93,2.27l-.02-.03c.81-1.35,1.59-2.74,2.33-4.16.59-.98,1.14-2.12,1.58-3.31l.05-.14c.15-.76.33-1.41.54-2.04l-.03.11c.07-.2.36-.36.87-.46.48-.1,1.04-.15,1.6-.15h.07c.95,0,1.45.24,1.52.71l-.2.4c-.24.68-.45,1.5-.59,2.34v.09c-.03.2-.04.42-.04.66,0,.48.05.96.14,1.42v-.05.4c.23.88.58,1.66,1.03,2.37l-.02-.03.3.71c1.69-.83,3.69-1.32,5.79-1.32h.08l-.07.08h0ZM866.84,46.97c1.41-1.46,2.28-3.45,2.28-5.64,0-.85-.13-1.66-.37-2.43l.02.06-1.62,1.01c-1.66.94-3.09,2-4.38,3.19h.02c-.98.89-1.71,2.06-2.07,3.38v.05c-.32,1.25-.16,2.06.44,2.43.37.17.81.27,1.26.27.5,0,.97-.12,1.39-.33h-.02c1.21-.43,2.23-1.13,3.04-2.02h.01v.03ZM880.43,37.63c.34-.88.71-1.93,1.12-3.15.54-1.62.73-2.57.56-2.84s-.49-.3-.96-.1c-.56.27-1.04.65-1.41,1.11h0c-.42.54-.82,1.14-1.18,1.77l-.04.07c-.41.67-.76,1.44-1,2.26l-.02.07c-.39,1.06-.62,2.29-.62,3.57,0,.17,0,.34.01.51v-.02c.07,1.35.28,2.08.65,2.18s.79-.39,1.27-1.47c.46-.84.88-1.81,1.19-2.83l.03-.11c.2-.48.34-.82.41-1.02h-.01ZM891.68,43c1.41-.63,2.4-1.96,2.53-3.53v-.12l-1.12,1.42-2.03,2.23s-.05.06-.05.1.02.08.05.1c.06.07.27,0,.61-.2h.01ZM900.41,41.08c1.53-.44,2.64-1.83,2.64-3.47v-.08h0c-.02-.4-.09-.78-.21-1.14v.03c-.78.7-1.43,1.54-1.9,2.49l-.02.05c-.61,1.22-.78,1.92-.51,2.13h0Z"/>
  <g>
    <path id="path0_fill" data-name="path0 fill" class="cls-17" d="M10.13,56.31c5.32,0,9.63-4.12,9.63-9.19v-9.19h-9.63c-5.32,0-9.63,4.12-9.63,9.19s4.31,9.19,9.63,9.19Z"/>
    <path id="path1_fill" data-name="path1 fill" class="cls-17" d="M.5,28.73c0-5.08,4.31-9.19,9.63-9.19h9.63v18.39h-9.63c-5.32,0-9.63-4.12-9.63-9.19h0Z"/>
    <path id="path1_fill-2" data-name="path1 fill-2" class="cls-17" d="M.5,10.34C.5,5.27,4.81,1.15,10.13,1.15h9.63v18.39h-9.63C4.81,19.54.5,15.42.5,10.34Z"/>
    <path id="path2_fill" data-name="path2 fill" class="cls-17" d="M19.76,1.15h9.63c5.32,0,9.63,4.12,9.63,9.19s-4.31,9.19-9.63,9.19h-9.63s0-18.38,0-18.38Z"/>
    <path id="path3_fill" data-name="path3 fill" class="cls-17" d="M39.02,28.73c0,5.08-4.31,9.19-9.63,9.19s-9.63-4.12-9.63-9.19,4.31-9.19,9.63-9.19,9.63,4.12,9.63,9.19Z"/>
  </g>
  <path class="cls-16" d="M985.58,12.37c-7.79,1.41-12.86,4.31-16.18,7.03-.41,1.6-.66,3.26-.66,4.99,0,11.54,9.85,20.89,22,20.89,1.81,0,3.53-.24,5.16-.64,3.51-4.45,6.38-12.19,7.11-18.6.77-6.7,2.29-8.74,4.19-10.06.67-.47,1.38-.83,2.13-1-2.13-4.57-5.87-8.15-10.69-10.03.01.05.03.1.05.15.92,3.92-3.26,5.49-13.11,7.27ZM1012.43,19.04c-.08-.15-.15-.32-.23-.52-1.43-3.5-4.87-1.23-5.77.83-1.79,4.06-1.52,5.83-2.25,9.94s-3.22,12.03-6.81,16.1c-5.13,5.8-10.73,8.38-18.6,7.63s-13.92-7.42-16.16-12.25c-1.88-4.06-2.17-8.65.06-14.62,2.23-5.96,8.9-10.81,15.01-13.14s10.94-2.56,14.34-3.55c3.41-.99,5.41-2.63,5.29-4.02-.16-1.73-1.82-2.65-2.76-3.03-2.84-.91-5.87-1.41-9.03-1.41-15.91,0-28.81,12.56-28.81,28.05s12.9,28.05,28.81,28.05,28.81-12.56,28.81-28.05c0-3.53-.67-6.91-1.9-10.02Z"/>
</svg>